G04 #@! TF.GenerationSoftware,KiCad,Pcbnew,9.0.4*
G04 #@! TF.CreationDate,2025-12-29T16:46:33-08:00*
G04 #@! TF.ProjectId,bikelight,62696b65-6c69-4676-9874-2e6b69636164,rev?*
G04 #@! TF.SameCoordinates,Original*
G04 #@! TF.FileFunction,Legend,Top*
G04 #@! TF.FilePolarity,Positive*
%FSLAX46Y46*%
G04 Gerber Fmt 4.6, Leading zero omitted, Abs format (unit mm)*
G04 Created by KiCad (PCBNEW 9.0.4) date 2025-12-29 16:46:33*
%MOMM*%
%LPD*%
G01*
G04 APERTURE LIST*
G04 Aperture macros list*
%AMRoundRect*
0 Rectangle with rounded corners*
0 $1 Rounding radius*
0 $2 $3 $4 $5 $6 $7 $8 $9 X,Y pos of 4 corners*
0 Add a 4 corners polygon primitive as box body*
4,1,4,$2,$3,$4,$5,$6,$7,$8,$9,$2,$3,0*
0 Add four circle primitives for the rounded corners*
1,1,$1+$1,$2,$3*
1,1,$1+$1,$4,$5*
1,1,$1+$1,$6,$7*
1,1,$1+$1,$8,$9*
0 Add four rect primitives between the rounded corners*
20,1,$1+$1,$2,$3,$4,$5,0*
20,1,$1+$1,$4,$5,$6,$7,0*
20,1,$1+$1,$6,$7,$8,$9,0*
20,1,$1+$1,$8,$9,$2,$3,0*%
G04 Aperture macros list end*
%ADD10C,0.300000*%
%ADD11C,0.150000*%
%ADD12C,0.120000*%
%ADD13C,0.200000*%
%ADD14R,1.700000X1.700000*%
%ADD15C,1.700000*%
%ADD16R,1.500000X1.500000*%
%ADD17R,0.599999X1.000000*%
%ADD18RoundRect,0.250000X0.450000X-0.262500X0.450000X0.262500X-0.450000X0.262500X-0.450000X-0.262500X0*%
%ADD19RoundRect,0.250000X0.625000X-0.312500X0.625000X0.312500X-0.625000X0.312500X-0.625000X-0.312500X0*%
%ADD20RoundRect,0.250000X1.100000X-0.325000X1.100000X0.325000X-1.100000X0.325000X-1.100000X-0.325000X0*%
%ADD21R,2.900000X5.400000*%
%ADD22RoundRect,0.250000X0.250000X0.475000X-0.250000X0.475000X-0.250000X-0.475000X0.250000X-0.475000X0*%
%ADD23RoundRect,0.250000X0.475000X-0.250000X0.475000X0.250000X-0.475000X0.250000X-0.475000X-0.250000X0*%
G04 APERTURE END LIST*
D10*
X111168798Y-71475828D02*
X111168798Y-71832971D01*
X110811655Y-71690114D02*
X111168798Y-71832971D01*
X111168798Y-71832971D02*
X111525941Y-71690114D01*
X110954512Y-72118685D02*
X111168798Y-71832971D01*
X111168798Y-71832971D02*
X111383084Y-72118685D01*
X130054510Y-87229400D02*
X131197368Y-87229400D01*
X130625939Y-87800828D02*
X130625939Y-86657971D01*
X91554510Y-94729400D02*
X92697368Y-94729400D01*
X92125939Y-95300828D02*
X92125939Y-94157971D01*
X130179510Y-73929400D02*
X131322368Y-73929400D01*
X130304510Y-93979400D02*
X131447368Y-93979400D01*
X97554510Y-94229400D02*
X98697368Y-94229400D01*
X130054510Y-68629400D02*
X131197368Y-68629400D01*
X93304510Y-77479400D02*
X94447368Y-77479400D01*
X93875939Y-78050828D02*
X93875939Y-76907971D01*
X130304510Y-80229400D02*
X131447368Y-80229400D01*
X130875939Y-80800828D02*
X130875939Y-79657971D01*
X91554510Y-67229400D02*
X92697368Y-67229400D01*
X93054510Y-70729400D02*
X94197368Y-70729400D01*
D11*
X112045180Y-73238095D02*
X111235657Y-73238095D01*
X111235657Y-73238095D02*
X111140419Y-73285714D01*
X111140419Y-73285714D02*
X111092800Y-73333333D01*
X111092800Y-73333333D02*
X111045180Y-73428571D01*
X111045180Y-73428571D02*
X111045180Y-73619047D01*
X111045180Y-73619047D02*
X111092800Y-73714285D01*
X111092800Y-73714285D02*
X111140419Y-73761904D01*
X111140419Y-73761904D02*
X111235657Y-73809523D01*
X111235657Y-73809523D02*
X112045180Y-73809523D01*
X111949942Y-74238095D02*
X111997561Y-74285714D01*
X111997561Y-74285714D02*
X112045180Y-74380952D01*
X112045180Y-74380952D02*
X112045180Y-74619047D01*
X112045180Y-74619047D02*
X111997561Y-74714285D01*
X111997561Y-74714285D02*
X111949942Y-74761904D01*
X111949942Y-74761904D02*
X111854704Y-74809523D01*
X111854704Y-74809523D02*
X111759466Y-74809523D01*
X111759466Y-74809523D02*
X111616609Y-74761904D01*
X111616609Y-74761904D02*
X111045180Y-74190476D01*
X111045180Y-74190476D02*
X111045180Y-74809523D01*
X107451759Y-62466686D02*
X106975568Y-62800019D01*
X107451759Y-63038114D02*
X106451759Y-63038114D01*
X106451759Y-63038114D02*
X106451759Y-62657162D01*
X106451759Y-62657162D02*
X106499378Y-62561924D01*
X106499378Y-62561924D02*
X106546997Y-62514305D01*
X106546997Y-62514305D02*
X106642235Y-62466686D01*
X106642235Y-62466686D02*
X106785092Y-62466686D01*
X106785092Y-62466686D02*
X106880330Y-62514305D01*
X106880330Y-62514305D02*
X106927949Y-62561924D01*
X106927949Y-62561924D02*
X106975568Y-62657162D01*
X106975568Y-62657162D02*
X106975568Y-63038114D01*
X106546997Y-62085733D02*
X106499378Y-62038114D01*
X106499378Y-62038114D02*
X106451759Y-61942876D01*
X106451759Y-61942876D02*
X106451759Y-61704781D01*
X106451759Y-61704781D02*
X106499378Y-61609543D01*
X106499378Y-61609543D02*
X106546997Y-61561924D01*
X106546997Y-61561924D02*
X106642235Y-61514305D01*
X106642235Y-61514305D02*
X106737473Y-61514305D01*
X106737473Y-61514305D02*
X106880330Y-61561924D01*
X106880330Y-61561924D02*
X107451759Y-62133352D01*
X107451759Y-62133352D02*
X107451759Y-61514305D01*
X121454819Y-72166666D02*
X120978628Y-72499999D01*
X121454819Y-72738094D02*
X120454819Y-72738094D01*
X120454819Y-72738094D02*
X120454819Y-72357142D01*
X120454819Y-72357142D02*
X120502438Y-72261904D01*
X120502438Y-72261904D02*
X120550057Y-72214285D01*
X120550057Y-72214285D02*
X120645295Y-72166666D01*
X120645295Y-72166666D02*
X120788152Y-72166666D01*
X120788152Y-72166666D02*
X120883390Y-72214285D01*
X120883390Y-72214285D02*
X120931009Y-72261904D01*
X120931009Y-72261904D02*
X120978628Y-72357142D01*
X120978628Y-72357142D02*
X120978628Y-72738094D01*
X120788152Y-71309523D02*
X121454819Y-71309523D01*
X120407200Y-71547618D02*
X121121485Y-71785713D01*
X121121485Y-71785713D02*
X121121485Y-71166666D01*
X102359580Y-77666666D02*
X102407200Y-77714285D01*
X102407200Y-77714285D02*
X102454819Y-77857142D01*
X102454819Y-77857142D02*
X102454819Y-77952380D01*
X102454819Y-77952380D02*
X102407200Y-78095237D01*
X102407200Y-78095237D02*
X102311961Y-78190475D01*
X102311961Y-78190475D02*
X102216723Y-78238094D01*
X102216723Y-78238094D02*
X102026247Y-78285713D01*
X102026247Y-78285713D02*
X101883390Y-78285713D01*
X101883390Y-78285713D02*
X101692914Y-78238094D01*
X101692914Y-78238094D02*
X101597676Y-78190475D01*
X101597676Y-78190475D02*
X101502438Y-78095237D01*
X101502438Y-78095237D02*
X101454819Y-77952380D01*
X101454819Y-77952380D02*
X101454819Y-77857142D01*
X101454819Y-77857142D02*
X101502438Y-77714285D01*
X101502438Y-77714285D02*
X101550057Y-77666666D01*
X101550057Y-77285713D02*
X101502438Y-77238094D01*
X101502438Y-77238094D02*
X101454819Y-77142856D01*
X101454819Y-77142856D02*
X101454819Y-76904761D01*
X101454819Y-76904761D02*
X101502438Y-76809523D01*
X101502438Y-76809523D02*
X101550057Y-76761904D01*
X101550057Y-76761904D02*
X101645295Y-76714285D01*
X101645295Y-76714285D02*
X101740533Y-76714285D01*
X101740533Y-76714285D02*
X101883390Y-76761904D01*
X101883390Y-76761904D02*
X102454819Y-77333332D01*
X102454819Y-77333332D02*
X102454819Y-76714285D01*
X108333333Y-87454819D02*
X107857143Y-87454819D01*
X107857143Y-87454819D02*
X107857143Y-86454819D01*
X109190476Y-87454819D02*
X108619048Y-87454819D01*
X108904762Y-87454819D02*
X108904762Y-86454819D01*
X108904762Y-86454819D02*
X108809524Y-86597676D01*
X108809524Y-86597676D02*
X108714286Y-86692914D01*
X108714286Y-86692914D02*
X108619048Y-86740533D01*
X109333333Y-80359580D02*
X109285714Y-80407200D01*
X109285714Y-80407200D02*
X109142857Y-80454819D01*
X109142857Y-80454819D02*
X109047619Y-80454819D01*
X109047619Y-80454819D02*
X108904762Y-80407200D01*
X108904762Y-80407200D02*
X108809524Y-80311961D01*
X108809524Y-80311961D02*
X108761905Y-80216723D01*
X108761905Y-80216723D02*
X108714286Y-80026247D01*
X108714286Y-80026247D02*
X108714286Y-79883390D01*
X108714286Y-79883390D02*
X108761905Y-79692914D01*
X108761905Y-79692914D02*
X108809524Y-79597676D01*
X108809524Y-79597676D02*
X108904762Y-79502438D01*
X108904762Y-79502438D02*
X109047619Y-79454819D01*
X109047619Y-79454819D02*
X109142857Y-79454819D01*
X109142857Y-79454819D02*
X109285714Y-79502438D01*
X109285714Y-79502438D02*
X109333333Y-79550057D01*
X110190476Y-79788152D02*
X110190476Y-80454819D01*
X109952381Y-79407200D02*
X109714286Y-80121485D01*
X109714286Y-80121485D02*
X110333333Y-80121485D01*
X105859580Y-77666666D02*
X105907200Y-77714285D01*
X105907200Y-77714285D02*
X105954819Y-77857142D01*
X105954819Y-77857142D02*
X105954819Y-77952380D01*
X105954819Y-77952380D02*
X105907200Y-78095237D01*
X105907200Y-78095237D02*
X105811961Y-78190475D01*
X105811961Y-78190475D02*
X105716723Y-78238094D01*
X105716723Y-78238094D02*
X105526247Y-78285713D01*
X105526247Y-78285713D02*
X105383390Y-78285713D01*
X105383390Y-78285713D02*
X105192914Y-78238094D01*
X105192914Y-78238094D02*
X105097676Y-78190475D01*
X105097676Y-78190475D02*
X105002438Y-78095237D01*
X105002438Y-78095237D02*
X104954819Y-77952380D01*
X104954819Y-77952380D02*
X104954819Y-77857142D01*
X104954819Y-77857142D02*
X105002438Y-77714285D01*
X105002438Y-77714285D02*
X105050057Y-77666666D01*
X104954819Y-77333332D02*
X104954819Y-76714285D01*
X104954819Y-76714285D02*
X105335771Y-77047618D01*
X105335771Y-77047618D02*
X105335771Y-76904761D01*
X105335771Y-76904761D02*
X105383390Y-76809523D01*
X105383390Y-76809523D02*
X105431009Y-76761904D01*
X105431009Y-76761904D02*
X105526247Y-76714285D01*
X105526247Y-76714285D02*
X105764342Y-76714285D01*
X105764342Y-76714285D02*
X105859580Y-76761904D01*
X105859580Y-76761904D02*
X105907200Y-76809523D01*
X105907200Y-76809523D02*
X105954819Y-76904761D01*
X105954819Y-76904761D02*
X105954819Y-77190475D01*
X105954819Y-77190475D02*
X105907200Y-77285713D01*
X105907200Y-77285713D02*
X105859580Y-77333332D01*
X124204819Y-72166666D02*
X123728628Y-72499999D01*
X124204819Y-72738094D02*
X123204819Y-72738094D01*
X123204819Y-72738094D02*
X123204819Y-72357142D01*
X123204819Y-72357142D02*
X123252438Y-72261904D01*
X123252438Y-72261904D02*
X123300057Y-72214285D01*
X123300057Y-72214285D02*
X123395295Y-72166666D01*
X123395295Y-72166666D02*
X123538152Y-72166666D01*
X123538152Y-72166666D02*
X123633390Y-72214285D01*
X123633390Y-72214285D02*
X123681009Y-72261904D01*
X123681009Y-72261904D02*
X123728628Y-72357142D01*
X123728628Y-72357142D02*
X123728628Y-72738094D01*
X123204819Y-71261904D02*
X123204819Y-71738094D01*
X123204819Y-71738094D02*
X123681009Y-71785713D01*
X123681009Y-71785713D02*
X123633390Y-71738094D01*
X123633390Y-71738094D02*
X123585771Y-71642856D01*
X123585771Y-71642856D02*
X123585771Y-71404761D01*
X123585771Y-71404761D02*
X123633390Y-71309523D01*
X123633390Y-71309523D02*
X123681009Y-71261904D01*
X123681009Y-71261904D02*
X123776247Y-71214285D01*
X123776247Y-71214285D02*
X124014342Y-71214285D01*
X124014342Y-71214285D02*
X124109580Y-71261904D01*
X124109580Y-71261904D02*
X124157200Y-71309523D01*
X124157200Y-71309523D02*
X124204819Y-71404761D01*
X124204819Y-71404761D02*
X124204819Y-71642856D01*
X124204819Y-71642856D02*
X124157200Y-71738094D01*
X124157200Y-71738094D02*
X124109580Y-71785713D01*
X118859580Y-77666666D02*
X118907200Y-77714285D01*
X118907200Y-77714285D02*
X118954819Y-77857142D01*
X118954819Y-77857142D02*
X118954819Y-77952380D01*
X118954819Y-77952380D02*
X118907200Y-78095237D01*
X118907200Y-78095237D02*
X118811961Y-78190475D01*
X118811961Y-78190475D02*
X118716723Y-78238094D01*
X118716723Y-78238094D02*
X118526247Y-78285713D01*
X118526247Y-78285713D02*
X118383390Y-78285713D01*
X118383390Y-78285713D02*
X118192914Y-78238094D01*
X118192914Y-78238094D02*
X118097676Y-78190475D01*
X118097676Y-78190475D02*
X118002438Y-78095237D01*
X118002438Y-78095237D02*
X117954819Y-77952380D01*
X117954819Y-77952380D02*
X117954819Y-77857142D01*
X117954819Y-77857142D02*
X118002438Y-77714285D01*
X118002438Y-77714285D02*
X118050057Y-77666666D01*
X117954819Y-76761904D02*
X117954819Y-77238094D01*
X117954819Y-77238094D02*
X118431009Y-77285713D01*
X118431009Y-77285713D02*
X118383390Y-77238094D01*
X118383390Y-77238094D02*
X118335771Y-77142856D01*
X118335771Y-77142856D02*
X118335771Y-76904761D01*
X118335771Y-76904761D02*
X118383390Y-76809523D01*
X118383390Y-76809523D02*
X118431009Y-76761904D01*
X118431009Y-76761904D02*
X118526247Y-76714285D01*
X118526247Y-76714285D02*
X118764342Y-76714285D01*
X118764342Y-76714285D02*
X118859580Y-76761904D01*
X118859580Y-76761904D02*
X118907200Y-76809523D01*
X118907200Y-76809523D02*
X118954819Y-76904761D01*
X118954819Y-76904761D02*
X118954819Y-77142856D01*
X118954819Y-77142856D02*
X118907200Y-77238094D01*
X118907200Y-77238094D02*
X118859580Y-77285713D01*
D12*
X90620000Y-74005000D02*
X90620000Y-71355000D01*
X93380000Y-71355000D02*
X90620000Y-71355000D01*
X93380000Y-74005000D02*
X90620000Y-74005000D01*
X93380000Y-74005000D02*
X93380000Y-71355000D01*
X93380000Y-75275000D02*
X93380000Y-76655000D01*
X93380000Y-76655000D02*
X92000000Y-76655000D01*
X130870000Y-77255000D02*
X130870000Y-74605000D01*
X133630000Y-74605000D02*
X130870000Y-74605000D01*
X133630000Y-77255000D02*
X130870000Y-77255000D01*
X133630000Y-77255000D02*
X133630000Y-74605000D01*
X133630000Y-78525000D02*
X133630000Y-79905000D01*
X133630000Y-79905000D02*
X132250000Y-79905000D01*
X91050000Y-91550000D02*
X92950000Y-91550000D01*
X91050000Y-93450000D02*
X91050000Y-91550000D01*
X92950000Y-91550000D02*
X92950000Y-93450000D01*
X92950000Y-93450000D02*
X91050000Y-93450000D01*
D13*
X107351001Y-73299999D02*
X107351001Y-74700001D01*
X110400002Y-72250001D02*
X110400002Y-74549999D01*
D12*
X91050000Y-64550000D02*
X92950000Y-64550000D01*
X91050000Y-66450000D02*
X91050000Y-64550000D01*
X92950000Y-64550000D02*
X92950000Y-66450000D01*
X92950000Y-66450000D02*
X91050000Y-66450000D01*
X97050000Y-91550000D02*
X98950000Y-91550000D01*
X97050000Y-93450000D02*
X97050000Y-91550000D01*
X98950000Y-91550000D02*
X98950000Y-93450000D01*
X98950000Y-93450000D02*
X97050000Y-93450000D01*
X108015000Y-62639564D02*
X108015000Y-62185436D01*
X109485000Y-62639564D02*
X109485000Y-62185436D01*
X131300000Y-66050000D02*
X133200000Y-66050000D01*
X131300000Y-67950000D02*
X131300000Y-66050000D01*
X133200000Y-66050000D02*
X133200000Y-67950000D01*
X133200000Y-67950000D02*
X131300000Y-67950000D01*
X119840000Y-69227064D02*
X119840000Y-67772936D01*
X121660000Y-69227064D02*
X121660000Y-67772936D01*
X100640000Y-74711252D02*
X100640000Y-73288748D01*
X103360000Y-74711252D02*
X103360000Y-73288748D01*
X101120000Y-61120000D02*
X102500000Y-61120000D01*
X101120000Y-62500000D02*
X101120000Y-61120000D01*
X101120000Y-63770000D02*
X101120000Y-63880000D01*
X101120000Y-63770000D02*
X103880000Y-63770000D01*
X101120000Y-63880000D02*
X103880000Y-63880000D01*
X103880000Y-63770000D02*
X103880000Y-63880000D01*
X110100000Y-84500000D02*
X110100000Y-81750000D01*
X110100000Y-93250000D02*
X110100000Y-90500000D01*
X110750000Y-81100000D02*
X122250000Y-81100000D01*
X122250000Y-93900000D02*
X110750000Y-93900000D01*
X122900000Y-84500000D02*
X122900000Y-81750000D01*
X122900000Y-93250000D02*
X122900000Y-90500000D01*
X110100000Y-81750000D02*
G75*
G02*
X110750000Y-81100000I650000J0D01*
G01*
X110750000Y-93900000D02*
G75*
G02*
X110100000Y-93250000I0J650000D01*
G01*
X122250000Y-81100000D02*
G75*
G02*
X122900000Y-81750000I-1J-650001D01*
G01*
X122900000Y-93250000D02*
G75*
G02*
X122250000Y-93900000I-650001J1D01*
G01*
X95550000Y-61550000D02*
X97450000Y-61550000D01*
X95550000Y-63450000D02*
X95550000Y-61550000D01*
X97450000Y-61550000D02*
X97450000Y-63450000D01*
X97450000Y-63450000D02*
X95550000Y-63450000D01*
X131300000Y-91550000D02*
X133200000Y-91550000D01*
X131300000Y-93450000D02*
X131300000Y-91550000D01*
X133200000Y-91550000D02*
X133200000Y-93450000D01*
X133200000Y-93450000D02*
X131300000Y-93450000D01*
X131300000Y-84800000D02*
X133200000Y-84800000D01*
X131300000Y-86700000D02*
X131300000Y-84800000D01*
X133200000Y-84800000D02*
X133200000Y-86700000D01*
X133200000Y-86700000D02*
X131300000Y-86700000D01*
X101050000Y-80800000D02*
X102950000Y-80800000D01*
X101050000Y-82700000D02*
X101050000Y-80800000D01*
X102950000Y-80800000D02*
X102950000Y-82700000D01*
X102950000Y-82700000D02*
X101050000Y-82700000D01*
X109811252Y-77265000D02*
X109288748Y-77265000D01*
X109811252Y-78735000D02*
X109288748Y-78735000D01*
X104765000Y-74761252D02*
X104765000Y-74238748D01*
X106235000Y-74761252D02*
X106235000Y-74238748D01*
X122840000Y-69227064D02*
X122840000Y-67772936D01*
X124660000Y-69227064D02*
X124660000Y-67772936D01*
X119640000Y-78211252D02*
X119640000Y-76788748D01*
X122360000Y-78211252D02*
X122360000Y-76788748D01*
%LPC*%
D14*
X92000000Y-75275000D03*
D15*
X92000000Y-72735000D03*
D14*
X132250000Y-78525000D03*
D15*
X132250000Y-75985000D03*
D16*
X92000000Y-92500000D03*
D17*
X109825002Y-72624999D03*
X108875001Y-72624999D03*
X107925003Y-72624999D03*
X107925003Y-75374999D03*
X108875001Y-75374999D03*
X109825002Y-75374999D03*
D16*
X92000000Y-65500000D03*
X98000000Y-92500000D03*
D18*
X108750000Y-63325000D03*
X108750000Y-61500000D03*
D16*
X132250000Y-67000000D03*
D19*
X120750000Y-69962500D03*
X120750000Y-67037500D03*
D20*
X102000000Y-75475000D03*
X102000000Y-72525000D03*
D14*
X102500000Y-62500000D03*
D21*
X121350000Y-87500000D03*
X111650000Y-87500000D03*
D16*
X96500000Y-62500000D03*
X132250000Y-92500000D03*
X132250000Y-85750000D03*
X102000000Y-81750000D03*
D22*
X110500000Y-78000000D03*
X108600000Y-78000000D03*
D23*
X105500000Y-75450000D03*
X105500000Y-73550000D03*
D19*
X123750000Y-69962500D03*
X123750000Y-67037500D03*
D20*
X121000000Y-78975000D03*
X121000000Y-76025000D03*
%LPD*%
M02*
