M48
; DRILL file {KiCad 9.0.4} date 2025-12-29T16:47:07-0800
; FORMAT={-:-/ absolute / metric / decimal}
; #@! TF.CreationDate,2025-12-29T16:47:07-08:00
; #@! TF.GenerationSoftware,Kicad,Pcbnew,9.0.4
; #@! TF.FileFunction,Plated,1,2,PTH
FMAT,2
METRIC
; #@! TA.AperFunction,Plated,PTH,ViaDrill
T1C0.300
; #@! TA.AperFunction,Plated,PTH,ComponentDrill
T2C1.000
%
G90
G05
T1
X98.0Y-88.5
X99.25Y-66.75
X99.25Y-68.5
X99.25Y-70.0
X99.25Y-71.25
X100.75Y-66.75
X100.75Y-68.5
X100.75Y-70.0
X100.75Y-71.25
X102.5Y-66.75
X102.5Y-68.25
X102.5Y-69.75
X102.5Y-71.25
X104.0Y-66.75
X104.0Y-68.25
X104.0Y-69.75
X104.0Y-71.25
X105.5Y-66.75
X105.5Y-68.25
X105.5Y-70.0
X107.25Y-66.75
X107.25Y-68.25
X107.25Y-70.0
X115.75Y-70.0
X116.25Y-71.25
X116.25Y-72.5
X116.25Y-73.5
X116.25Y-75.0
X116.25Y-76.25
X116.25Y-77.5
X117.5Y-71.25
X117.5Y-72.5
X117.5Y-73.5
X117.5Y-75.0
X117.5Y-76.25
X117.5Y-77.5
X118.75Y-71.25
X118.75Y-72.5
X118.75Y-73.5
X118.75Y-75.0
X118.75Y-76.25
X118.75Y-77.5
X119.75Y-71.25
X119.75Y-72.5
X119.75Y-73.5
X122.25Y-71.5
X122.25Y-72.5
X122.25Y-73.5
X123.25Y-71.5
X123.25Y-72.5
X123.25Y-73.5
X123.25Y-74.75
X123.25Y-75.75
X124.25Y-71.5
X124.25Y-72.5
X124.25Y-73.5
X124.25Y-74.75
X124.25Y-75.75
X125.25Y-71.5
X125.25Y-72.5
X125.25Y-73.5
X125.25Y-74.75
X125.25Y-75.75
X128.5Y-92.5
T2
X92.0Y-72.735
X92.0Y-75.275
X102.5Y-62.5
X132.25Y-75.985
X132.25Y-78.525
M30
