%TF.GenerationSoftware,KiCad,Pcbnew,9.0.4*%
%TF.CreationDate,2025-12-29T16:47:07-08:00*%
%TF.ProjectId,bikelight,62696b65-6c69-4676-9874-2e6b69636164,rev?*%
%TF.SameCoordinates,Original*%
%TF.FileFunction,Drillmap*%
%TF.FilePolarity,Positive*%
%FSLAX45Y45*%
G04 Gerber Fmt 4.5, Leading zero omitted, Abs format (unit mm)*
G04 Created by KiCad (PCBNEW 9.0.4) date 2025-12-29 16:47:07*
%MOMM*%
%LPD*%
G01*
G04 APERTURE LIST*
%ADD10C,0.050000*%
%ADD11C,0.200000*%
%ADD12C,0.100000*%
G04 APERTURE END LIST*
D10*
X8750000Y-5750000D02*
X13750000Y-5750000D01*
X13750000Y-9750000D01*
X8750000Y-9750000D01*
X8750000Y-5750000D01*
D11*
D12*
X9785000Y-8835000D02*
X9815000Y-8865000D01*
X9815000Y-8835000D02*
X9785000Y-8865000D01*
X9910000Y-6660000D02*
X9940000Y-6690000D01*
X9940000Y-6660000D02*
X9910000Y-6690000D01*
X9910000Y-6835000D02*
X9940000Y-6865000D01*
X9940000Y-6835000D02*
X9910000Y-6865000D01*
X9910000Y-6985000D02*
X9940000Y-7015000D01*
X9940000Y-6985000D02*
X9910000Y-7015000D01*
X9910000Y-7110000D02*
X9940000Y-7140000D01*
X9940000Y-7110000D02*
X9910000Y-7140000D01*
X10060000Y-6660000D02*
X10090000Y-6690000D01*
X10090000Y-6660000D02*
X10060000Y-6690000D01*
X10060000Y-6835000D02*
X10090000Y-6865000D01*
X10090000Y-6835000D02*
X10060000Y-6865000D01*
X10060000Y-6985000D02*
X10090000Y-7015000D01*
X10090000Y-6985000D02*
X10060000Y-7015000D01*
X10060000Y-7110000D02*
X10090000Y-7140000D01*
X10090000Y-7110000D02*
X10060000Y-7140000D01*
X10235000Y-6660000D02*
X10265000Y-6690000D01*
X10265000Y-6660000D02*
X10235000Y-6690000D01*
X10235000Y-6810000D02*
X10265000Y-6840000D01*
X10265000Y-6810000D02*
X10235000Y-6840000D01*
X10235000Y-6960000D02*
X10265000Y-6990000D01*
X10265000Y-6960000D02*
X10235000Y-6990000D01*
X10235000Y-7110000D02*
X10265000Y-7140000D01*
X10265000Y-7110000D02*
X10235000Y-7140000D01*
X10385000Y-6660000D02*
X10415000Y-6690000D01*
X10415000Y-6660000D02*
X10385000Y-6690000D01*
X10385000Y-6810000D02*
X10415000Y-6840000D01*
X10415000Y-6810000D02*
X10385000Y-6840000D01*
X10385000Y-6960000D02*
X10415000Y-6990000D01*
X10415000Y-6960000D02*
X10385000Y-6990000D01*
X10385000Y-7110000D02*
X10415000Y-7140000D01*
X10415000Y-7110000D02*
X10385000Y-7140000D01*
X10535000Y-6660000D02*
X10565000Y-6690000D01*
X10565000Y-6660000D02*
X10535000Y-6690000D01*
X10535000Y-6810000D02*
X10565000Y-6840000D01*
X10565000Y-6810000D02*
X10535000Y-6840000D01*
X10535000Y-6985000D02*
X10565000Y-7015000D01*
X10565000Y-6985000D02*
X10535000Y-7015000D01*
X10710000Y-6660000D02*
X10740000Y-6690000D01*
X10740000Y-6660000D02*
X10710000Y-6690000D01*
X10710000Y-6810000D02*
X10740000Y-6840000D01*
X10740000Y-6810000D02*
X10710000Y-6840000D01*
X10710000Y-6985000D02*
X10740000Y-7015000D01*
X10740000Y-6985000D02*
X10710000Y-7015000D01*
X11560000Y-6985000D02*
X11590000Y-7015000D01*
X11590000Y-6985000D02*
X11560000Y-7015000D01*
X11610000Y-7110000D02*
X11640000Y-7140000D01*
X11640000Y-7110000D02*
X11610000Y-7140000D01*
X11610000Y-7235000D02*
X11640000Y-7265000D01*
X11640000Y-7235000D02*
X11610000Y-7265000D01*
X11610000Y-7335000D02*
X11640000Y-7365000D01*
X11640000Y-7335000D02*
X11610000Y-7365000D01*
X11610000Y-7485000D02*
X11640000Y-7515000D01*
X11640000Y-7485000D02*
X11610000Y-7515000D01*
X11610000Y-7610000D02*
X11640000Y-7640000D01*
X11640000Y-7610000D02*
X11610000Y-7640000D01*
X11610000Y-7735000D02*
X11640000Y-7765000D01*
X11640000Y-7735000D02*
X11610000Y-7765000D01*
X11735000Y-7110000D02*
X11765000Y-7140000D01*
X11765000Y-7110000D02*
X11735000Y-7140000D01*
X11735000Y-7235000D02*
X11765000Y-7265000D01*
X11765000Y-7235000D02*
X11735000Y-7265000D01*
X11735000Y-7335000D02*
X11765000Y-7365000D01*
X11765000Y-7335000D02*
X11735000Y-7365000D01*
X11735000Y-7485000D02*
X11765000Y-7515000D01*
X11765000Y-7485000D02*
X11735000Y-7515000D01*
X11735000Y-7610000D02*
X11765000Y-7640000D01*
X11765000Y-7610000D02*
X11735000Y-7640000D01*
X11735000Y-7735000D02*
X11765000Y-7765000D01*
X11765000Y-7735000D02*
X11735000Y-7765000D01*
X11860000Y-7110000D02*
X11890000Y-7140000D01*
X11890000Y-7110000D02*
X11860000Y-7140000D01*
X11860000Y-7235000D02*
X11890000Y-7265000D01*
X11890000Y-7235000D02*
X11860000Y-7265000D01*
X11860000Y-7335000D02*
X11890000Y-7365000D01*
X11890000Y-7335000D02*
X11860000Y-7365000D01*
X11860000Y-7485000D02*
X11890000Y-7515000D01*
X11890000Y-7485000D02*
X11860000Y-7515000D01*
X11860000Y-7610000D02*
X11890000Y-7640000D01*
X11890000Y-7610000D02*
X11860000Y-7640000D01*
X11860000Y-7735000D02*
X11890000Y-7765000D01*
X11890000Y-7735000D02*
X11860000Y-7765000D01*
X11960000Y-7110000D02*
X11990000Y-7140000D01*
X11990000Y-7110000D02*
X11960000Y-7140000D01*
X11960000Y-7235000D02*
X11990000Y-7265000D01*
X11990000Y-7235000D02*
X11960000Y-7265000D01*
X11960000Y-7335000D02*
X11990000Y-7365000D01*
X11990000Y-7335000D02*
X11960000Y-7365000D01*
X12210000Y-7135000D02*
X12240000Y-7165000D01*
X12240000Y-7135000D02*
X12210000Y-7165000D01*
X12210000Y-7235000D02*
X12240000Y-7265000D01*
X12240000Y-7235000D02*
X12210000Y-7265000D01*
X12210000Y-7335000D02*
X12240000Y-7365000D01*
X12240000Y-7335000D02*
X12210000Y-7365000D01*
X12310000Y-7135000D02*
X12340000Y-7165000D01*
X12340000Y-7135000D02*
X12310000Y-7165000D01*
X12310000Y-7235000D02*
X12340000Y-7265000D01*
X12340000Y-7235000D02*
X12310000Y-7265000D01*
X12310000Y-7335000D02*
X12340000Y-7365000D01*
X12340000Y-7335000D02*
X12310000Y-7365000D01*
X12310000Y-7460000D02*
X12340000Y-7490000D01*
X12340000Y-7460000D02*
X12310000Y-7490000D01*
X12310000Y-7560000D02*
X12340000Y-7590000D01*
X12340000Y-7560000D02*
X12310000Y-7590000D01*
X12410000Y-7135000D02*
X12440000Y-7165000D01*
X12440000Y-7135000D02*
X12410000Y-7165000D01*
X12410000Y-7235000D02*
X12440000Y-7265000D01*
X12440000Y-7235000D02*
X12410000Y-7265000D01*
X12410000Y-7335000D02*
X12440000Y-7365000D01*
X12440000Y-7335000D02*
X12410000Y-7365000D01*
X12410000Y-7460000D02*
X12440000Y-7490000D01*
X12440000Y-7460000D02*
X12410000Y-7490000D01*
X12410000Y-7560000D02*
X12440000Y-7590000D01*
X12440000Y-7560000D02*
X12410000Y-7590000D01*
X12510000Y-7135000D02*
X12540000Y-7165000D01*
X12540000Y-7135000D02*
X12510000Y-7165000D01*
X12510000Y-7235000D02*
X12540000Y-7265000D01*
X12540000Y-7235000D02*
X12510000Y-7265000D01*
X12510000Y-7335000D02*
X12540000Y-7365000D01*
X12540000Y-7335000D02*
X12510000Y-7365000D01*
X12510000Y-7460000D02*
X12540000Y-7490000D01*
X12540000Y-7460000D02*
X12510000Y-7490000D01*
X12510000Y-7560000D02*
X12540000Y-7590000D01*
X12540000Y-7560000D02*
X12510000Y-7590000D01*
X12835000Y-9235000D02*
X12865000Y-9265000D01*
X12865000Y-9235000D02*
X12835000Y-9265000D01*
X9250000Y-7273500D02*
G75*
G02*
X9150000Y-7273500I-50000J0D01*
G01*
X9150000Y-7273500D02*
G75*
G02*
X9250000Y-7273500I50000J0D01*
G01*
X9250000Y-7527500D02*
G75*
G02*
X9150000Y-7527500I-50000J0D01*
G01*
X9150000Y-7527500D02*
G75*
G02*
X9250000Y-7527500I50000J0D01*
G01*
X10300000Y-6250000D02*
G75*
G02*
X10200000Y-6250000I-50000J0D01*
G01*
X10200000Y-6250000D02*
G75*
G02*
X10300000Y-6250000I50000J0D01*
G01*
X13275000Y-7598500D02*
G75*
G02*
X13175000Y-7598500I-50000J0D01*
G01*
X13175000Y-7598500D02*
G75*
G02*
X13275000Y-7598500I50000J0D01*
G01*
X13275000Y-7852500D02*
G75*
G02*
X13175000Y-7852500I-50000J0D01*
G01*
X13175000Y-7852500D02*
G75*
G02*
X13275000Y-7852500I50000J0D01*
G01*
D11*
X9008277Y-10063984D02*
X9008277Y-9863984D01*
X9008277Y-9863984D02*
X9055896Y-9863984D01*
X9055896Y-9863984D02*
X9084467Y-9873508D01*
X9084467Y-9873508D02*
X9103515Y-9892555D01*
X9103515Y-9892555D02*
X9113039Y-9911603D01*
X9113039Y-9911603D02*
X9122563Y-9949698D01*
X9122563Y-9949698D02*
X9122563Y-9978270D01*
X9122563Y-9978270D02*
X9113039Y-10016365D01*
X9113039Y-10016365D02*
X9103515Y-10035412D01*
X9103515Y-10035412D02*
X9084467Y-10054460D01*
X9084467Y-10054460D02*
X9055896Y-10063984D01*
X9055896Y-10063984D02*
X9008277Y-10063984D01*
X9208277Y-10063984D02*
X9208277Y-9930650D01*
X9208277Y-9968746D02*
X9217801Y-9949698D01*
X9217801Y-9949698D02*
X9227324Y-9940174D01*
X9227324Y-9940174D02*
X9246372Y-9930650D01*
X9246372Y-9930650D02*
X9265420Y-9930650D01*
X9332086Y-10063984D02*
X9332086Y-9930650D01*
X9332086Y-9863984D02*
X9322563Y-9873508D01*
X9322563Y-9873508D02*
X9332086Y-9883031D01*
X9332086Y-9883031D02*
X9341610Y-9873508D01*
X9341610Y-9873508D02*
X9332086Y-9863984D01*
X9332086Y-9863984D02*
X9332086Y-9883031D01*
X9455896Y-10063984D02*
X9436848Y-10054460D01*
X9436848Y-10054460D02*
X9427324Y-10035412D01*
X9427324Y-10035412D02*
X9427324Y-9863984D01*
X9560658Y-10063984D02*
X9541610Y-10054460D01*
X9541610Y-10054460D02*
X9532086Y-10035412D01*
X9532086Y-10035412D02*
X9532086Y-9863984D01*
X9789229Y-10063984D02*
X9789229Y-9863984D01*
X9789229Y-9863984D02*
X9855896Y-10006841D01*
X9855896Y-10006841D02*
X9922563Y-9863984D01*
X9922563Y-9863984D02*
X9922563Y-10063984D01*
X10103515Y-10063984D02*
X10103515Y-9959222D01*
X10103515Y-9959222D02*
X10093991Y-9940174D01*
X10093991Y-9940174D02*
X10074944Y-9930650D01*
X10074944Y-9930650D02*
X10036848Y-9930650D01*
X10036848Y-9930650D02*
X10017801Y-9940174D01*
X10103515Y-10054460D02*
X10084467Y-10063984D01*
X10084467Y-10063984D02*
X10036848Y-10063984D01*
X10036848Y-10063984D02*
X10017801Y-10054460D01*
X10017801Y-10054460D02*
X10008277Y-10035412D01*
X10008277Y-10035412D02*
X10008277Y-10016365D01*
X10008277Y-10016365D02*
X10017801Y-9997317D01*
X10017801Y-9997317D02*
X10036848Y-9987793D01*
X10036848Y-9987793D02*
X10084467Y-9987793D01*
X10084467Y-9987793D02*
X10103515Y-9978270D01*
X10198753Y-9930650D02*
X10198753Y-10130650D01*
X10198753Y-9940174D02*
X10217801Y-9930650D01*
X10217801Y-9930650D02*
X10255896Y-9930650D01*
X10255896Y-9930650D02*
X10274944Y-9940174D01*
X10274944Y-9940174D02*
X10284467Y-9949698D01*
X10284467Y-9949698D02*
X10293991Y-9968746D01*
X10293991Y-9968746D02*
X10293991Y-10025889D01*
X10293991Y-10025889D02*
X10284467Y-10044936D01*
X10284467Y-10044936D02*
X10274944Y-10054460D01*
X10274944Y-10054460D02*
X10255896Y-10063984D01*
X10255896Y-10063984D02*
X10217801Y-10063984D01*
X10217801Y-10063984D02*
X10198753Y-10054460D01*
X10379705Y-10044936D02*
X10389229Y-10054460D01*
X10389229Y-10054460D02*
X10379705Y-10063984D01*
X10379705Y-10063984D02*
X10370182Y-10054460D01*
X10370182Y-10054460D02*
X10379705Y-10044936D01*
X10379705Y-10044936D02*
X10379705Y-10063984D01*
X10379705Y-9940174D02*
X10389229Y-9949698D01*
X10389229Y-9949698D02*
X10379705Y-9959222D01*
X10379705Y-9959222D02*
X10370182Y-9949698D01*
X10370182Y-9949698D02*
X10379705Y-9940174D01*
X10379705Y-9940174D02*
X10379705Y-9959222D01*
D12*
X8717500Y-10377500D02*
X8747500Y-10407500D01*
X8747500Y-10377500D02*
X8717500Y-10407500D01*
D11*
X9046372Y-10283984D02*
X9065420Y-10283984D01*
X9065420Y-10283984D02*
X9084467Y-10293508D01*
X9084467Y-10293508D02*
X9093991Y-10303031D01*
X9093991Y-10303031D02*
X9103515Y-10322079D01*
X9103515Y-10322079D02*
X9113039Y-10360174D01*
X9113039Y-10360174D02*
X9113039Y-10407793D01*
X9113039Y-10407793D02*
X9103515Y-10445889D01*
X9103515Y-10445889D02*
X9093991Y-10464936D01*
X9093991Y-10464936D02*
X9084467Y-10474460D01*
X9084467Y-10474460D02*
X9065420Y-10483984D01*
X9065420Y-10483984D02*
X9046372Y-10483984D01*
X9046372Y-10483984D02*
X9027324Y-10474460D01*
X9027324Y-10474460D02*
X9017801Y-10464936D01*
X9017801Y-10464936D02*
X9008277Y-10445889D01*
X9008277Y-10445889D02*
X8998753Y-10407793D01*
X8998753Y-10407793D02*
X8998753Y-10360174D01*
X8998753Y-10360174D02*
X9008277Y-10322079D01*
X9008277Y-10322079D02*
X9017801Y-10303031D01*
X9017801Y-10303031D02*
X9027324Y-10293508D01*
X9027324Y-10293508D02*
X9046372Y-10283984D01*
X9198753Y-10464936D02*
X9208277Y-10474460D01*
X9208277Y-10474460D02*
X9198753Y-10483984D01*
X9198753Y-10483984D02*
X9189229Y-10474460D01*
X9189229Y-10474460D02*
X9198753Y-10464936D01*
X9198753Y-10464936D02*
X9198753Y-10483984D01*
X9274944Y-10283984D02*
X9398753Y-10283984D01*
X9398753Y-10283984D02*
X9332086Y-10360174D01*
X9332086Y-10360174D02*
X9360658Y-10360174D01*
X9360658Y-10360174D02*
X9379705Y-10369698D01*
X9379705Y-10369698D02*
X9389229Y-10379222D01*
X9389229Y-10379222D02*
X9398753Y-10398270D01*
X9398753Y-10398270D02*
X9398753Y-10445889D01*
X9398753Y-10445889D02*
X9389229Y-10464936D01*
X9389229Y-10464936D02*
X9379705Y-10474460D01*
X9379705Y-10474460D02*
X9360658Y-10483984D01*
X9360658Y-10483984D02*
X9303515Y-10483984D01*
X9303515Y-10483984D02*
X9284467Y-10474460D01*
X9284467Y-10474460D02*
X9274944Y-10464936D01*
X9522563Y-10283984D02*
X9541610Y-10283984D01*
X9541610Y-10283984D02*
X9560658Y-10293508D01*
X9560658Y-10293508D02*
X9570182Y-10303031D01*
X9570182Y-10303031D02*
X9579705Y-10322079D01*
X9579705Y-10322079D02*
X9589229Y-10360174D01*
X9589229Y-10360174D02*
X9589229Y-10407793D01*
X9589229Y-10407793D02*
X9579705Y-10445889D01*
X9579705Y-10445889D02*
X9570182Y-10464936D01*
X9570182Y-10464936D02*
X9560658Y-10474460D01*
X9560658Y-10474460D02*
X9541610Y-10483984D01*
X9541610Y-10483984D02*
X9522563Y-10483984D01*
X9522563Y-10483984D02*
X9503515Y-10474460D01*
X9503515Y-10474460D02*
X9493991Y-10464936D01*
X9493991Y-10464936D02*
X9484467Y-10445889D01*
X9484467Y-10445889D02*
X9474944Y-10407793D01*
X9474944Y-10407793D02*
X9474944Y-10360174D01*
X9474944Y-10360174D02*
X9484467Y-10322079D01*
X9484467Y-10322079D02*
X9493991Y-10303031D01*
X9493991Y-10303031D02*
X9503515Y-10293508D01*
X9503515Y-10293508D02*
X9522563Y-10283984D01*
X9713039Y-10283984D02*
X9732086Y-10283984D01*
X9732086Y-10283984D02*
X9751134Y-10293508D01*
X9751134Y-10293508D02*
X9760658Y-10303031D01*
X9760658Y-10303031D02*
X9770182Y-10322079D01*
X9770182Y-10322079D02*
X9779705Y-10360174D01*
X9779705Y-10360174D02*
X9779705Y-10407793D01*
X9779705Y-10407793D02*
X9770182Y-10445889D01*
X9770182Y-10445889D02*
X9760658Y-10464936D01*
X9760658Y-10464936D02*
X9751134Y-10474460D01*
X9751134Y-10474460D02*
X9732086Y-10483984D01*
X9732086Y-10483984D02*
X9713039Y-10483984D01*
X9713039Y-10483984D02*
X9693991Y-10474460D01*
X9693991Y-10474460D02*
X9684467Y-10464936D01*
X9684467Y-10464936D02*
X9674944Y-10445889D01*
X9674944Y-10445889D02*
X9665420Y-10407793D01*
X9665420Y-10407793D02*
X9665420Y-10360174D01*
X9665420Y-10360174D02*
X9674944Y-10322079D01*
X9674944Y-10322079D02*
X9684467Y-10303031D01*
X9684467Y-10303031D02*
X9693991Y-10293508D01*
X9693991Y-10293508D02*
X9713039Y-10283984D01*
X9865420Y-10483984D02*
X9865420Y-10350650D01*
X9865420Y-10369698D02*
X9874944Y-10360174D01*
X9874944Y-10360174D02*
X9893991Y-10350650D01*
X9893991Y-10350650D02*
X9922563Y-10350650D01*
X9922563Y-10350650D02*
X9941610Y-10360174D01*
X9941610Y-10360174D02*
X9951134Y-10379222D01*
X9951134Y-10379222D02*
X9951134Y-10483984D01*
X9951134Y-10379222D02*
X9960658Y-10360174D01*
X9960658Y-10360174D02*
X9979705Y-10350650D01*
X9979705Y-10350650D02*
X10008277Y-10350650D01*
X10008277Y-10350650D02*
X10027325Y-10360174D01*
X10027325Y-10360174D02*
X10036848Y-10379222D01*
X10036848Y-10379222D02*
X10036848Y-10483984D01*
X10132086Y-10483984D02*
X10132086Y-10350650D01*
X10132086Y-10369698D02*
X10141610Y-10360174D01*
X10141610Y-10360174D02*
X10160658Y-10350650D01*
X10160658Y-10350650D02*
X10189229Y-10350650D01*
X10189229Y-10350650D02*
X10208277Y-10360174D01*
X10208277Y-10360174D02*
X10217801Y-10379222D01*
X10217801Y-10379222D02*
X10217801Y-10483984D01*
X10217801Y-10379222D02*
X10227325Y-10360174D01*
X10227325Y-10360174D02*
X10246372Y-10350650D01*
X10246372Y-10350650D02*
X10274944Y-10350650D01*
X10274944Y-10350650D02*
X10293991Y-10360174D01*
X10293991Y-10360174D02*
X10303515Y-10379222D01*
X10303515Y-10379222D02*
X10303515Y-10483984D01*
X10693991Y-10274460D02*
X10522563Y-10531603D01*
X10951134Y-10283984D02*
X10970182Y-10283984D01*
X10970182Y-10283984D02*
X10989229Y-10293508D01*
X10989229Y-10293508D02*
X10998753Y-10303031D01*
X10998753Y-10303031D02*
X11008277Y-10322079D01*
X11008277Y-10322079D02*
X11017801Y-10360174D01*
X11017801Y-10360174D02*
X11017801Y-10407793D01*
X11017801Y-10407793D02*
X11008277Y-10445889D01*
X11008277Y-10445889D02*
X10998753Y-10464936D01*
X10998753Y-10464936D02*
X10989229Y-10474460D01*
X10989229Y-10474460D02*
X10970182Y-10483984D01*
X10970182Y-10483984D02*
X10951134Y-10483984D01*
X10951134Y-10483984D02*
X10932087Y-10474460D01*
X10932087Y-10474460D02*
X10922563Y-10464936D01*
X10922563Y-10464936D02*
X10913039Y-10445889D01*
X10913039Y-10445889D02*
X10903515Y-10407793D01*
X10903515Y-10407793D02*
X10903515Y-10360174D01*
X10903515Y-10360174D02*
X10913039Y-10322079D01*
X10913039Y-10322079D02*
X10922563Y-10303031D01*
X10922563Y-10303031D02*
X10932087Y-10293508D01*
X10932087Y-10293508D02*
X10951134Y-10283984D01*
X11103515Y-10464936D02*
X11113039Y-10474460D01*
X11113039Y-10474460D02*
X11103515Y-10483984D01*
X11103515Y-10483984D02*
X11093991Y-10474460D01*
X11093991Y-10474460D02*
X11103515Y-10464936D01*
X11103515Y-10464936D02*
X11103515Y-10483984D01*
X11236848Y-10283984D02*
X11255896Y-10283984D01*
X11255896Y-10283984D02*
X11274944Y-10293508D01*
X11274944Y-10293508D02*
X11284467Y-10303031D01*
X11284467Y-10303031D02*
X11293991Y-10322079D01*
X11293991Y-10322079D02*
X11303515Y-10360174D01*
X11303515Y-10360174D02*
X11303515Y-10407793D01*
X11303515Y-10407793D02*
X11293991Y-10445889D01*
X11293991Y-10445889D02*
X11284467Y-10464936D01*
X11284467Y-10464936D02*
X11274944Y-10474460D01*
X11274944Y-10474460D02*
X11255896Y-10483984D01*
X11255896Y-10483984D02*
X11236848Y-10483984D01*
X11236848Y-10483984D02*
X11217801Y-10474460D01*
X11217801Y-10474460D02*
X11208277Y-10464936D01*
X11208277Y-10464936D02*
X11198753Y-10445889D01*
X11198753Y-10445889D02*
X11189229Y-10407793D01*
X11189229Y-10407793D02*
X11189229Y-10360174D01*
X11189229Y-10360174D02*
X11198753Y-10322079D01*
X11198753Y-10322079D02*
X11208277Y-10303031D01*
X11208277Y-10303031D02*
X11217801Y-10293508D01*
X11217801Y-10293508D02*
X11236848Y-10283984D01*
X11493991Y-10483984D02*
X11379706Y-10483984D01*
X11436848Y-10483984D02*
X11436848Y-10283984D01*
X11436848Y-10283984D02*
X11417801Y-10312555D01*
X11417801Y-10312555D02*
X11398753Y-10331603D01*
X11398753Y-10331603D02*
X11379706Y-10341127D01*
X11684467Y-10483984D02*
X11570182Y-10483984D01*
X11627325Y-10483984D02*
X11627325Y-10283984D01*
X11627325Y-10283984D02*
X11608277Y-10312555D01*
X11608277Y-10312555D02*
X11589229Y-10331603D01*
X11589229Y-10331603D02*
X11570182Y-10341127D01*
X11798753Y-10369698D02*
X11779706Y-10360174D01*
X11779706Y-10360174D02*
X11770182Y-10350650D01*
X11770182Y-10350650D02*
X11760658Y-10331603D01*
X11760658Y-10331603D02*
X11760658Y-10322079D01*
X11760658Y-10322079D02*
X11770182Y-10303031D01*
X11770182Y-10303031D02*
X11779706Y-10293508D01*
X11779706Y-10293508D02*
X11798753Y-10283984D01*
X11798753Y-10283984D02*
X11836848Y-10283984D01*
X11836848Y-10283984D02*
X11855896Y-10293508D01*
X11855896Y-10293508D02*
X11865420Y-10303031D01*
X11865420Y-10303031D02*
X11874944Y-10322079D01*
X11874944Y-10322079D02*
X11874944Y-10331603D01*
X11874944Y-10331603D02*
X11865420Y-10350650D01*
X11865420Y-10350650D02*
X11855896Y-10360174D01*
X11855896Y-10360174D02*
X11836848Y-10369698D01*
X11836848Y-10369698D02*
X11798753Y-10369698D01*
X11798753Y-10369698D02*
X11779706Y-10379222D01*
X11779706Y-10379222D02*
X11770182Y-10388746D01*
X11770182Y-10388746D02*
X11760658Y-10407793D01*
X11760658Y-10407793D02*
X11760658Y-10445889D01*
X11760658Y-10445889D02*
X11770182Y-10464936D01*
X11770182Y-10464936D02*
X11779706Y-10474460D01*
X11779706Y-10474460D02*
X11798753Y-10483984D01*
X11798753Y-10483984D02*
X11836848Y-10483984D01*
X11836848Y-10483984D02*
X11855896Y-10474460D01*
X11855896Y-10474460D02*
X11865420Y-10464936D01*
X11865420Y-10464936D02*
X11874944Y-10445889D01*
X11874944Y-10445889D02*
X11874944Y-10407793D01*
X11874944Y-10407793D02*
X11865420Y-10388746D01*
X11865420Y-10388746D02*
X11855896Y-10379222D01*
X11855896Y-10379222D02*
X11836848Y-10369698D01*
X11951134Y-10283984D02*
X11951134Y-10322079D01*
X12027325Y-10283984D02*
X12027325Y-10322079D01*
X12322563Y-10560174D02*
X12313039Y-10550650D01*
X12313039Y-10550650D02*
X12293991Y-10522079D01*
X12293991Y-10522079D02*
X12284468Y-10503031D01*
X12284468Y-10503031D02*
X12274944Y-10474460D01*
X12274944Y-10474460D02*
X12265420Y-10426841D01*
X12265420Y-10426841D02*
X12265420Y-10388746D01*
X12265420Y-10388746D02*
X12274944Y-10341127D01*
X12274944Y-10341127D02*
X12284468Y-10312555D01*
X12284468Y-10312555D02*
X12293991Y-10293508D01*
X12293991Y-10293508D02*
X12313039Y-10264936D01*
X12313039Y-10264936D02*
X12322563Y-10255412D01*
X12484468Y-10283984D02*
X12446372Y-10283984D01*
X12446372Y-10283984D02*
X12427325Y-10293508D01*
X12427325Y-10293508D02*
X12417801Y-10303031D01*
X12417801Y-10303031D02*
X12398753Y-10331603D01*
X12398753Y-10331603D02*
X12389229Y-10369698D01*
X12389229Y-10369698D02*
X12389229Y-10445889D01*
X12389229Y-10445889D02*
X12398753Y-10464936D01*
X12398753Y-10464936D02*
X12408277Y-10474460D01*
X12408277Y-10474460D02*
X12427325Y-10483984D01*
X12427325Y-10483984D02*
X12465420Y-10483984D01*
X12465420Y-10483984D02*
X12484468Y-10474460D01*
X12484468Y-10474460D02*
X12493991Y-10464936D01*
X12493991Y-10464936D02*
X12503515Y-10445889D01*
X12503515Y-10445889D02*
X12503515Y-10398270D01*
X12503515Y-10398270D02*
X12493991Y-10379222D01*
X12493991Y-10379222D02*
X12484468Y-10369698D01*
X12484468Y-10369698D02*
X12465420Y-10360174D01*
X12465420Y-10360174D02*
X12427325Y-10360174D01*
X12427325Y-10360174D02*
X12408277Y-10369698D01*
X12408277Y-10369698D02*
X12398753Y-10379222D01*
X12398753Y-10379222D02*
X12389229Y-10398270D01*
X12674944Y-10350650D02*
X12674944Y-10483984D01*
X12627325Y-10274460D02*
X12579706Y-10417317D01*
X12579706Y-10417317D02*
X12703515Y-10417317D01*
X12932087Y-10483984D02*
X12932087Y-10283984D01*
X13017801Y-10483984D02*
X13017801Y-10379222D01*
X13017801Y-10379222D02*
X13008277Y-10360174D01*
X13008277Y-10360174D02*
X12989230Y-10350650D01*
X12989230Y-10350650D02*
X12960658Y-10350650D01*
X12960658Y-10350650D02*
X12941610Y-10360174D01*
X12941610Y-10360174D02*
X12932087Y-10369698D01*
X13141610Y-10483984D02*
X13122563Y-10474460D01*
X13122563Y-10474460D02*
X13113039Y-10464936D01*
X13113039Y-10464936D02*
X13103515Y-10445889D01*
X13103515Y-10445889D02*
X13103515Y-10388746D01*
X13103515Y-10388746D02*
X13113039Y-10369698D01*
X13113039Y-10369698D02*
X13122563Y-10360174D01*
X13122563Y-10360174D02*
X13141610Y-10350650D01*
X13141610Y-10350650D02*
X13170182Y-10350650D01*
X13170182Y-10350650D02*
X13189230Y-10360174D01*
X13189230Y-10360174D02*
X13198753Y-10369698D01*
X13198753Y-10369698D02*
X13208277Y-10388746D01*
X13208277Y-10388746D02*
X13208277Y-10445889D01*
X13208277Y-10445889D02*
X13198753Y-10464936D01*
X13198753Y-10464936D02*
X13189230Y-10474460D01*
X13189230Y-10474460D02*
X13170182Y-10483984D01*
X13170182Y-10483984D02*
X13141610Y-10483984D01*
X13322563Y-10483984D02*
X13303515Y-10474460D01*
X13303515Y-10474460D02*
X13293991Y-10455412D01*
X13293991Y-10455412D02*
X13293991Y-10283984D01*
X13474944Y-10474460D02*
X13455896Y-10483984D01*
X13455896Y-10483984D02*
X13417801Y-10483984D01*
X13417801Y-10483984D02*
X13398753Y-10474460D01*
X13398753Y-10474460D02*
X13389230Y-10455412D01*
X13389230Y-10455412D02*
X13389230Y-10379222D01*
X13389230Y-10379222D02*
X13398753Y-10360174D01*
X13398753Y-10360174D02*
X13417801Y-10350650D01*
X13417801Y-10350650D02*
X13455896Y-10350650D01*
X13455896Y-10350650D02*
X13474944Y-10360174D01*
X13474944Y-10360174D02*
X13484468Y-10379222D01*
X13484468Y-10379222D02*
X13484468Y-10398270D01*
X13484468Y-10398270D02*
X13389230Y-10417317D01*
X13560658Y-10474460D02*
X13579706Y-10483984D01*
X13579706Y-10483984D02*
X13617801Y-10483984D01*
X13617801Y-10483984D02*
X13636849Y-10474460D01*
X13636849Y-10474460D02*
X13646372Y-10455412D01*
X13646372Y-10455412D02*
X13646372Y-10445889D01*
X13646372Y-10445889D02*
X13636849Y-10426841D01*
X13636849Y-10426841D02*
X13617801Y-10417317D01*
X13617801Y-10417317D02*
X13589230Y-10417317D01*
X13589230Y-10417317D02*
X13570182Y-10407793D01*
X13570182Y-10407793D02*
X13560658Y-10388746D01*
X13560658Y-10388746D02*
X13560658Y-10379222D01*
X13560658Y-10379222D02*
X13570182Y-10360174D01*
X13570182Y-10360174D02*
X13589230Y-10350650D01*
X13589230Y-10350650D02*
X13617801Y-10350650D01*
X13617801Y-10350650D02*
X13636849Y-10360174D01*
X13713039Y-10560174D02*
X13722563Y-10550650D01*
X13722563Y-10550650D02*
X13741611Y-10522079D01*
X13741611Y-10522079D02*
X13751134Y-10503031D01*
X13751134Y-10503031D02*
X13760658Y-10474460D01*
X13760658Y-10474460D02*
X13770182Y-10426841D01*
X13770182Y-10426841D02*
X13770182Y-10388746D01*
X13770182Y-10388746D02*
X13760658Y-10341127D01*
X13760658Y-10341127D02*
X13751134Y-10312555D01*
X13751134Y-10312555D02*
X13741611Y-10293508D01*
X13741611Y-10293508D02*
X13722563Y-10264936D01*
X13722563Y-10264936D02*
X13713039Y-10255412D01*
D12*
X8747500Y-10656500D02*
G75*
G02*
X8647500Y-10656500I-50000J0D01*
G01*
X8647500Y-10656500D02*
G75*
G02*
X8747500Y-10656500I50000J0D01*
G01*
D11*
X9113039Y-10747984D02*
X8998753Y-10747984D01*
X9055896Y-10747984D02*
X9055896Y-10547984D01*
X9055896Y-10547984D02*
X9036848Y-10576555D01*
X9036848Y-10576555D02*
X9017801Y-10595603D01*
X9017801Y-10595603D02*
X8998753Y-10605127D01*
X9198753Y-10728936D02*
X9208277Y-10738460D01*
X9208277Y-10738460D02*
X9198753Y-10747984D01*
X9198753Y-10747984D02*
X9189229Y-10738460D01*
X9189229Y-10738460D02*
X9198753Y-10728936D01*
X9198753Y-10728936D02*
X9198753Y-10747984D01*
X9332086Y-10547984D02*
X9351134Y-10547984D01*
X9351134Y-10547984D02*
X9370182Y-10557508D01*
X9370182Y-10557508D02*
X9379705Y-10567031D01*
X9379705Y-10567031D02*
X9389229Y-10586079D01*
X9389229Y-10586079D02*
X9398753Y-10624174D01*
X9398753Y-10624174D02*
X9398753Y-10671793D01*
X9398753Y-10671793D02*
X9389229Y-10709889D01*
X9389229Y-10709889D02*
X9379705Y-10728936D01*
X9379705Y-10728936D02*
X9370182Y-10738460D01*
X9370182Y-10738460D02*
X9351134Y-10747984D01*
X9351134Y-10747984D02*
X9332086Y-10747984D01*
X9332086Y-10747984D02*
X9313039Y-10738460D01*
X9313039Y-10738460D02*
X9303515Y-10728936D01*
X9303515Y-10728936D02*
X9293991Y-10709889D01*
X9293991Y-10709889D02*
X9284467Y-10671793D01*
X9284467Y-10671793D02*
X9284467Y-10624174D01*
X9284467Y-10624174D02*
X9293991Y-10586079D01*
X9293991Y-10586079D02*
X9303515Y-10567031D01*
X9303515Y-10567031D02*
X9313039Y-10557508D01*
X9313039Y-10557508D02*
X9332086Y-10547984D01*
X9522563Y-10547984D02*
X9541610Y-10547984D01*
X9541610Y-10547984D02*
X9560658Y-10557508D01*
X9560658Y-10557508D02*
X9570182Y-10567031D01*
X9570182Y-10567031D02*
X9579705Y-10586079D01*
X9579705Y-10586079D02*
X9589229Y-10624174D01*
X9589229Y-10624174D02*
X9589229Y-10671793D01*
X9589229Y-10671793D02*
X9579705Y-10709889D01*
X9579705Y-10709889D02*
X9570182Y-10728936D01*
X9570182Y-10728936D02*
X9560658Y-10738460D01*
X9560658Y-10738460D02*
X9541610Y-10747984D01*
X9541610Y-10747984D02*
X9522563Y-10747984D01*
X9522563Y-10747984D02*
X9503515Y-10738460D01*
X9503515Y-10738460D02*
X9493991Y-10728936D01*
X9493991Y-10728936D02*
X9484467Y-10709889D01*
X9484467Y-10709889D02*
X9474944Y-10671793D01*
X9474944Y-10671793D02*
X9474944Y-10624174D01*
X9474944Y-10624174D02*
X9484467Y-10586079D01*
X9484467Y-10586079D02*
X9493991Y-10567031D01*
X9493991Y-10567031D02*
X9503515Y-10557508D01*
X9503515Y-10557508D02*
X9522563Y-10547984D01*
X9713039Y-10547984D02*
X9732086Y-10547984D01*
X9732086Y-10547984D02*
X9751134Y-10557508D01*
X9751134Y-10557508D02*
X9760658Y-10567031D01*
X9760658Y-10567031D02*
X9770182Y-10586079D01*
X9770182Y-10586079D02*
X9779705Y-10624174D01*
X9779705Y-10624174D02*
X9779705Y-10671793D01*
X9779705Y-10671793D02*
X9770182Y-10709889D01*
X9770182Y-10709889D02*
X9760658Y-10728936D01*
X9760658Y-10728936D02*
X9751134Y-10738460D01*
X9751134Y-10738460D02*
X9732086Y-10747984D01*
X9732086Y-10747984D02*
X9713039Y-10747984D01*
X9713039Y-10747984D02*
X9693991Y-10738460D01*
X9693991Y-10738460D02*
X9684467Y-10728936D01*
X9684467Y-10728936D02*
X9674944Y-10709889D01*
X9674944Y-10709889D02*
X9665420Y-10671793D01*
X9665420Y-10671793D02*
X9665420Y-10624174D01*
X9665420Y-10624174D02*
X9674944Y-10586079D01*
X9674944Y-10586079D02*
X9684467Y-10567031D01*
X9684467Y-10567031D02*
X9693991Y-10557508D01*
X9693991Y-10557508D02*
X9713039Y-10547984D01*
X9865420Y-10747984D02*
X9865420Y-10614650D01*
X9865420Y-10633698D02*
X9874944Y-10624174D01*
X9874944Y-10624174D02*
X9893991Y-10614650D01*
X9893991Y-10614650D02*
X9922563Y-10614650D01*
X9922563Y-10614650D02*
X9941610Y-10624174D01*
X9941610Y-10624174D02*
X9951134Y-10643222D01*
X9951134Y-10643222D02*
X9951134Y-10747984D01*
X9951134Y-10643222D02*
X9960658Y-10624174D01*
X9960658Y-10624174D02*
X9979705Y-10614650D01*
X9979705Y-10614650D02*
X10008277Y-10614650D01*
X10008277Y-10614650D02*
X10027325Y-10624174D01*
X10027325Y-10624174D02*
X10036848Y-10643222D01*
X10036848Y-10643222D02*
X10036848Y-10747984D01*
X10132086Y-10747984D02*
X10132086Y-10614650D01*
X10132086Y-10633698D02*
X10141610Y-10624174D01*
X10141610Y-10624174D02*
X10160658Y-10614650D01*
X10160658Y-10614650D02*
X10189229Y-10614650D01*
X10189229Y-10614650D02*
X10208277Y-10624174D01*
X10208277Y-10624174D02*
X10217801Y-10643222D01*
X10217801Y-10643222D02*
X10217801Y-10747984D01*
X10217801Y-10643222D02*
X10227325Y-10624174D01*
X10227325Y-10624174D02*
X10246372Y-10614650D01*
X10246372Y-10614650D02*
X10274944Y-10614650D01*
X10274944Y-10614650D02*
X10293991Y-10624174D01*
X10293991Y-10624174D02*
X10303515Y-10643222D01*
X10303515Y-10643222D02*
X10303515Y-10747984D01*
X10693991Y-10538460D02*
X10522563Y-10795603D01*
X10951134Y-10547984D02*
X10970182Y-10547984D01*
X10970182Y-10547984D02*
X10989229Y-10557508D01*
X10989229Y-10557508D02*
X10998753Y-10567031D01*
X10998753Y-10567031D02*
X11008277Y-10586079D01*
X11008277Y-10586079D02*
X11017801Y-10624174D01*
X11017801Y-10624174D02*
X11017801Y-10671793D01*
X11017801Y-10671793D02*
X11008277Y-10709889D01*
X11008277Y-10709889D02*
X10998753Y-10728936D01*
X10998753Y-10728936D02*
X10989229Y-10738460D01*
X10989229Y-10738460D02*
X10970182Y-10747984D01*
X10970182Y-10747984D02*
X10951134Y-10747984D01*
X10951134Y-10747984D02*
X10932087Y-10738460D01*
X10932087Y-10738460D02*
X10922563Y-10728936D01*
X10922563Y-10728936D02*
X10913039Y-10709889D01*
X10913039Y-10709889D02*
X10903515Y-10671793D01*
X10903515Y-10671793D02*
X10903515Y-10624174D01*
X10903515Y-10624174D02*
X10913039Y-10586079D01*
X10913039Y-10586079D02*
X10922563Y-10567031D01*
X10922563Y-10567031D02*
X10932087Y-10557508D01*
X10932087Y-10557508D02*
X10951134Y-10547984D01*
X11103515Y-10728936D02*
X11113039Y-10738460D01*
X11113039Y-10738460D02*
X11103515Y-10747984D01*
X11103515Y-10747984D02*
X11093991Y-10738460D01*
X11093991Y-10738460D02*
X11103515Y-10728936D01*
X11103515Y-10728936D02*
X11103515Y-10747984D01*
X11236848Y-10547984D02*
X11255896Y-10547984D01*
X11255896Y-10547984D02*
X11274944Y-10557508D01*
X11274944Y-10557508D02*
X11284467Y-10567031D01*
X11284467Y-10567031D02*
X11293991Y-10586079D01*
X11293991Y-10586079D02*
X11303515Y-10624174D01*
X11303515Y-10624174D02*
X11303515Y-10671793D01*
X11303515Y-10671793D02*
X11293991Y-10709889D01*
X11293991Y-10709889D02*
X11284467Y-10728936D01*
X11284467Y-10728936D02*
X11274944Y-10738460D01*
X11274944Y-10738460D02*
X11255896Y-10747984D01*
X11255896Y-10747984D02*
X11236848Y-10747984D01*
X11236848Y-10747984D02*
X11217801Y-10738460D01*
X11217801Y-10738460D02*
X11208277Y-10728936D01*
X11208277Y-10728936D02*
X11198753Y-10709889D01*
X11198753Y-10709889D02*
X11189229Y-10671793D01*
X11189229Y-10671793D02*
X11189229Y-10624174D01*
X11189229Y-10624174D02*
X11198753Y-10586079D01*
X11198753Y-10586079D02*
X11208277Y-10567031D01*
X11208277Y-10567031D02*
X11217801Y-10557508D01*
X11217801Y-10557508D02*
X11236848Y-10547984D01*
X11370182Y-10547984D02*
X11493991Y-10547984D01*
X11493991Y-10547984D02*
X11427325Y-10624174D01*
X11427325Y-10624174D02*
X11455896Y-10624174D01*
X11455896Y-10624174D02*
X11474944Y-10633698D01*
X11474944Y-10633698D02*
X11484467Y-10643222D01*
X11484467Y-10643222D02*
X11493991Y-10662270D01*
X11493991Y-10662270D02*
X11493991Y-10709889D01*
X11493991Y-10709889D02*
X11484467Y-10728936D01*
X11484467Y-10728936D02*
X11474944Y-10738460D01*
X11474944Y-10738460D02*
X11455896Y-10747984D01*
X11455896Y-10747984D02*
X11398753Y-10747984D01*
X11398753Y-10747984D02*
X11379706Y-10738460D01*
X11379706Y-10738460D02*
X11370182Y-10728936D01*
X11589229Y-10747984D02*
X11627325Y-10747984D01*
X11627325Y-10747984D02*
X11646372Y-10738460D01*
X11646372Y-10738460D02*
X11655896Y-10728936D01*
X11655896Y-10728936D02*
X11674944Y-10700365D01*
X11674944Y-10700365D02*
X11684467Y-10662270D01*
X11684467Y-10662270D02*
X11684467Y-10586079D01*
X11684467Y-10586079D02*
X11674944Y-10567031D01*
X11674944Y-10567031D02*
X11665420Y-10557508D01*
X11665420Y-10557508D02*
X11646372Y-10547984D01*
X11646372Y-10547984D02*
X11608277Y-10547984D01*
X11608277Y-10547984D02*
X11589229Y-10557508D01*
X11589229Y-10557508D02*
X11579706Y-10567031D01*
X11579706Y-10567031D02*
X11570182Y-10586079D01*
X11570182Y-10586079D02*
X11570182Y-10633698D01*
X11570182Y-10633698D02*
X11579706Y-10652746D01*
X11579706Y-10652746D02*
X11589229Y-10662270D01*
X11589229Y-10662270D02*
X11608277Y-10671793D01*
X11608277Y-10671793D02*
X11646372Y-10671793D01*
X11646372Y-10671793D02*
X11665420Y-10662270D01*
X11665420Y-10662270D02*
X11674944Y-10652746D01*
X11674944Y-10652746D02*
X11684467Y-10633698D01*
X11855896Y-10614650D02*
X11855896Y-10747984D01*
X11808277Y-10538460D02*
X11760658Y-10681317D01*
X11760658Y-10681317D02*
X11884467Y-10681317D01*
X11951134Y-10547984D02*
X11951134Y-10586079D01*
X12027325Y-10547984D02*
X12027325Y-10586079D01*
X12322563Y-10824174D02*
X12313039Y-10814650D01*
X12313039Y-10814650D02*
X12293991Y-10786079D01*
X12293991Y-10786079D02*
X12284468Y-10767031D01*
X12284468Y-10767031D02*
X12274944Y-10738460D01*
X12274944Y-10738460D02*
X12265420Y-10690841D01*
X12265420Y-10690841D02*
X12265420Y-10652746D01*
X12265420Y-10652746D02*
X12274944Y-10605127D01*
X12274944Y-10605127D02*
X12284468Y-10576555D01*
X12284468Y-10576555D02*
X12293991Y-10557508D01*
X12293991Y-10557508D02*
X12313039Y-10528936D01*
X12313039Y-10528936D02*
X12322563Y-10519412D01*
X12493991Y-10547984D02*
X12398753Y-10547984D01*
X12398753Y-10547984D02*
X12389229Y-10643222D01*
X12389229Y-10643222D02*
X12398753Y-10633698D01*
X12398753Y-10633698D02*
X12417801Y-10624174D01*
X12417801Y-10624174D02*
X12465420Y-10624174D01*
X12465420Y-10624174D02*
X12484468Y-10633698D01*
X12484468Y-10633698D02*
X12493991Y-10643222D01*
X12493991Y-10643222D02*
X12503515Y-10662270D01*
X12503515Y-10662270D02*
X12503515Y-10709889D01*
X12503515Y-10709889D02*
X12493991Y-10728936D01*
X12493991Y-10728936D02*
X12484468Y-10738460D01*
X12484468Y-10738460D02*
X12465420Y-10747984D01*
X12465420Y-10747984D02*
X12417801Y-10747984D01*
X12417801Y-10747984D02*
X12398753Y-10738460D01*
X12398753Y-10738460D02*
X12389229Y-10728936D01*
X12741610Y-10747984D02*
X12741610Y-10547984D01*
X12827325Y-10747984D02*
X12827325Y-10643222D01*
X12827325Y-10643222D02*
X12817801Y-10624174D01*
X12817801Y-10624174D02*
X12798753Y-10614650D01*
X12798753Y-10614650D02*
X12770182Y-10614650D01*
X12770182Y-10614650D02*
X12751134Y-10624174D01*
X12751134Y-10624174D02*
X12741610Y-10633698D01*
X12951134Y-10747984D02*
X12932087Y-10738460D01*
X12932087Y-10738460D02*
X12922563Y-10728936D01*
X12922563Y-10728936D02*
X12913039Y-10709889D01*
X12913039Y-10709889D02*
X12913039Y-10652746D01*
X12913039Y-10652746D02*
X12922563Y-10633698D01*
X12922563Y-10633698D02*
X12932087Y-10624174D01*
X12932087Y-10624174D02*
X12951134Y-10614650D01*
X12951134Y-10614650D02*
X12979706Y-10614650D01*
X12979706Y-10614650D02*
X12998753Y-10624174D01*
X12998753Y-10624174D02*
X13008277Y-10633698D01*
X13008277Y-10633698D02*
X13017801Y-10652746D01*
X13017801Y-10652746D02*
X13017801Y-10709889D01*
X13017801Y-10709889D02*
X13008277Y-10728936D01*
X13008277Y-10728936D02*
X12998753Y-10738460D01*
X12998753Y-10738460D02*
X12979706Y-10747984D01*
X12979706Y-10747984D02*
X12951134Y-10747984D01*
X13132087Y-10747984D02*
X13113039Y-10738460D01*
X13113039Y-10738460D02*
X13103515Y-10719412D01*
X13103515Y-10719412D02*
X13103515Y-10547984D01*
X13284468Y-10738460D02*
X13265420Y-10747984D01*
X13265420Y-10747984D02*
X13227325Y-10747984D01*
X13227325Y-10747984D02*
X13208277Y-10738460D01*
X13208277Y-10738460D02*
X13198753Y-10719412D01*
X13198753Y-10719412D02*
X13198753Y-10643222D01*
X13198753Y-10643222D02*
X13208277Y-10624174D01*
X13208277Y-10624174D02*
X13227325Y-10614650D01*
X13227325Y-10614650D02*
X13265420Y-10614650D01*
X13265420Y-10614650D02*
X13284468Y-10624174D01*
X13284468Y-10624174D02*
X13293991Y-10643222D01*
X13293991Y-10643222D02*
X13293991Y-10662270D01*
X13293991Y-10662270D02*
X13198753Y-10681317D01*
X13370182Y-10738460D02*
X13389230Y-10747984D01*
X13389230Y-10747984D02*
X13427325Y-10747984D01*
X13427325Y-10747984D02*
X13446372Y-10738460D01*
X13446372Y-10738460D02*
X13455896Y-10719412D01*
X13455896Y-10719412D02*
X13455896Y-10709889D01*
X13455896Y-10709889D02*
X13446372Y-10690841D01*
X13446372Y-10690841D02*
X13427325Y-10681317D01*
X13427325Y-10681317D02*
X13398753Y-10681317D01*
X13398753Y-10681317D02*
X13379706Y-10671793D01*
X13379706Y-10671793D02*
X13370182Y-10652746D01*
X13370182Y-10652746D02*
X13370182Y-10643222D01*
X13370182Y-10643222D02*
X13379706Y-10624174D01*
X13379706Y-10624174D02*
X13398753Y-10614650D01*
X13398753Y-10614650D02*
X13427325Y-10614650D01*
X13427325Y-10614650D02*
X13446372Y-10624174D01*
X13522563Y-10824174D02*
X13532087Y-10814650D01*
X13532087Y-10814650D02*
X13551134Y-10786079D01*
X13551134Y-10786079D02*
X13560658Y-10767031D01*
X13560658Y-10767031D02*
X13570182Y-10738460D01*
X13570182Y-10738460D02*
X13579706Y-10690841D01*
X13579706Y-10690841D02*
X13579706Y-10652746D01*
X13579706Y-10652746D02*
X13570182Y-10605127D01*
X13570182Y-10605127D02*
X13560658Y-10576555D01*
X13560658Y-10576555D02*
X13551134Y-10557508D01*
X13551134Y-10557508D02*
X13532087Y-10528936D01*
X13532087Y-10528936D02*
X13522563Y-10519412D01*
M02*
