G04 #@! TF.GenerationSoftware,KiCad,Pcbnew,9.0.4*
G04 #@! TF.CreationDate,2025-12-29T16:46:33-08:00*
G04 #@! TF.ProjectId,bikelight,62696b65-6c69-4676-9874-2e6b69636164,rev?*
G04 #@! TF.SameCoordinates,Original*
G04 #@! TF.FileFunction,Copper,L1,Top*
G04 #@! TF.FilePolarity,Positive*
%FSLAX46Y46*%
G04 Gerber Fmt 4.6, Leading zero omitted, Abs format (unit mm)*
G04 Created by KiCad (PCBNEW 9.0.4) date 2025-12-29 16:46:33*
%MOMM*%
%LPD*%
G01*
G04 APERTURE LIST*
G04 Aperture macros list*
%AMRoundRect*
0 Rectangle with rounded corners*
0 $1 Rounding radius*
0 $2 $3 $4 $5 $6 $7 $8 $9 X,Y pos of 4 corners*
0 Add a 4 corners polygon primitive as box body*
4,1,4,$2,$3,$4,$5,$6,$7,$8,$9,$2,$3,0*
0 Add four circle primitives for the rounded corners*
1,1,$1+$1,$2,$3*
1,1,$1+$1,$4,$5*
1,1,$1+$1,$6,$7*
1,1,$1+$1,$8,$9*
0 Add four rect primitives between the rounded corners*
20,1,$1+$1,$2,$3,$4,$5,0*
20,1,$1+$1,$4,$5,$6,$7,0*
20,1,$1+$1,$6,$7,$8,$9,0*
20,1,$1+$1,$8,$9,$2,$3,0*%
G04 Aperture macros list end*
G04 #@! TA.AperFunction,ComponentPad*
%ADD10R,1.700000X1.700000*%
G04 #@! TD*
G04 #@! TA.AperFunction,ComponentPad*
%ADD11C,1.700000*%
G04 #@! TD*
G04 #@! TA.AperFunction,SMDPad,CuDef*
%ADD12R,1.500000X1.500000*%
G04 #@! TD*
G04 #@! TA.AperFunction,SMDPad,CuDef*
%ADD13R,0.599999X1.000000*%
G04 #@! TD*
G04 #@! TA.AperFunction,SMDPad,CuDef*
%ADD14RoundRect,0.250000X0.450000X-0.262500X0.450000X0.262500X-0.450000X0.262500X-0.450000X-0.262500X0*%
G04 #@! TD*
G04 #@! TA.AperFunction,SMDPad,CuDef*
%ADD15RoundRect,0.250000X0.625000X-0.312500X0.625000X0.312500X-0.625000X0.312500X-0.625000X-0.312500X0*%
G04 #@! TD*
G04 #@! TA.AperFunction,SMDPad,CuDef*
%ADD16RoundRect,0.250000X1.100000X-0.325000X1.100000X0.325000X-1.100000X0.325000X-1.100000X-0.325000X0*%
G04 #@! TD*
G04 #@! TA.AperFunction,SMDPad,CuDef*
%ADD17R,2.900000X5.400000*%
G04 #@! TD*
G04 #@! TA.AperFunction,SMDPad,CuDef*
%ADD18RoundRect,0.250000X0.250000X0.475000X-0.250000X0.475000X-0.250000X-0.475000X0.250000X-0.475000X0*%
G04 #@! TD*
G04 #@! TA.AperFunction,SMDPad,CuDef*
%ADD19RoundRect,0.250000X0.475000X-0.250000X0.475000X0.250000X-0.475000X0.250000X-0.475000X-0.250000X0*%
G04 #@! TD*
G04 #@! TA.AperFunction,ViaPad*
%ADD20C,0.600000*%
G04 #@! TD*
G04 #@! TA.AperFunction,Conductor*
%ADD21C,0.500000*%
G04 #@! TD*
G04 #@! TA.AperFunction,Conductor*
%ADD22C,2.000000*%
G04 #@! TD*
G04 #@! TA.AperFunction,Conductor*
%ADD23C,1.000000*%
G04 #@! TD*
G04 #@! TA.AperFunction,Conductor*
%ADD24C,0.200000*%
G04 #@! TD*
G04 #@! TA.AperFunction,Conductor*
%ADD25C,0.800000*%
G04 #@! TD*
G04 APERTURE END LIST*
D10*
X92000000Y-75275000D03*
D11*
X92000000Y-72735000D03*
D10*
X132250000Y-78525000D03*
D11*
X132250000Y-75985000D03*
D12*
X92000000Y-92500000D03*
D13*
X109825002Y-72624999D03*
X108875001Y-72624999D03*
X107925003Y-72624999D03*
X107925003Y-75374999D03*
X108875001Y-75374999D03*
X109825002Y-75374999D03*
D12*
X92000000Y-65500000D03*
X98000000Y-92500000D03*
D14*
X108750000Y-63325000D03*
X108750000Y-61500000D03*
D12*
X132250000Y-67000000D03*
D15*
X120750000Y-69962500D03*
X120750000Y-67037500D03*
D16*
X102000000Y-75475000D03*
X102000000Y-72525000D03*
D10*
X102500000Y-62500000D03*
D17*
X121350000Y-87500000D03*
X111650000Y-87500000D03*
D12*
X96500000Y-62500000D03*
X132250000Y-92500000D03*
X132250000Y-85750000D03*
X102000000Y-81750000D03*
D18*
X110500000Y-78000000D03*
X108600000Y-78000000D03*
D19*
X105500000Y-75450000D03*
X105500000Y-73550000D03*
D15*
X123750000Y-69962500D03*
X123750000Y-67037500D03*
D16*
X121000000Y-78975000D03*
X121000000Y-76025000D03*
D20*
X102500000Y-71250000D03*
X107250000Y-66750000D03*
X123250000Y-74750000D03*
X100750000Y-70000000D03*
X104000000Y-68250000D03*
X122250000Y-73500000D03*
X105500000Y-66750000D03*
X116250000Y-73500000D03*
X99250000Y-71250000D03*
X104000000Y-69750000D03*
X98000000Y-88500000D03*
X123250000Y-71500000D03*
X99250000Y-68500000D03*
X117500000Y-75000000D03*
X123250000Y-72500000D03*
X124250000Y-75750000D03*
X99250000Y-66750000D03*
X124250000Y-73500000D03*
X124250000Y-71500000D03*
X102500000Y-66750000D03*
X119750000Y-73500000D03*
X125250000Y-71500000D03*
X118750000Y-72500000D03*
X104000000Y-71250000D03*
X117500000Y-72500000D03*
X118750000Y-77500000D03*
X100750000Y-68500000D03*
X125250000Y-74750000D03*
X128500000Y-92500000D03*
X118750000Y-75000000D03*
X116250000Y-71250000D03*
X119750000Y-71250000D03*
X118750000Y-73500000D03*
X105500000Y-68250000D03*
X117500000Y-76250000D03*
X118750000Y-71250000D03*
X117500000Y-77500000D03*
X100750000Y-71250000D03*
X117500000Y-73500000D03*
X116250000Y-75000000D03*
X115750000Y-70000000D03*
X99250000Y-70000000D03*
X122250000Y-71500000D03*
X102500000Y-69750000D03*
X123250000Y-73500000D03*
X125250000Y-75750000D03*
X123250000Y-75750000D03*
X116250000Y-72500000D03*
X116250000Y-76250000D03*
X107250000Y-70000000D03*
X100750000Y-66750000D03*
X102500000Y-68250000D03*
X122250000Y-72500000D03*
X116250000Y-77500000D03*
X125250000Y-72500000D03*
X119750000Y-72500000D03*
X124250000Y-74750000D03*
X118750000Y-76250000D03*
X107250000Y-68250000D03*
X104000000Y-66750000D03*
X117500000Y-71250000D03*
X124250000Y-72500000D03*
X105500000Y-70000000D03*
X125250000Y-73500000D03*
D21*
X108600000Y-78000000D02*
X108875001Y-77724999D01*
D22*
X108000000Y-79000000D02*
X108000000Y-83850000D01*
D23*
X108000000Y-78600000D02*
X108000000Y-79000000D01*
D21*
X108875001Y-77724999D02*
X108875001Y-75374999D01*
D23*
X108600000Y-78000000D02*
X108000000Y-78600000D01*
D22*
X108000000Y-83850000D02*
X111650000Y-87500000D01*
D24*
X110500000Y-76049997D02*
X109825002Y-75374999D01*
X110500000Y-78000000D02*
X110500000Y-76049997D01*
D22*
X102000000Y-81750000D02*
X102000000Y-75475000D01*
D23*
X92000000Y-75500000D02*
X92025000Y-75475000D01*
X102025000Y-75500000D02*
X102000000Y-75475000D01*
D25*
X105500000Y-75450000D02*
X102025000Y-75450000D01*
D24*
X92000000Y-75275000D02*
X92000000Y-75500000D01*
D22*
X92000000Y-75500000D02*
X92000000Y-92500000D01*
D25*
X105575001Y-75374999D02*
X105500000Y-75450000D01*
D22*
X92025000Y-75475000D02*
X102000000Y-75475000D01*
D25*
X102025000Y-75450000D02*
X102000000Y-75475000D01*
X107925003Y-75374999D02*
X105575001Y-75374999D01*
X122975000Y-76025000D02*
X123250000Y-75750000D01*
X121000000Y-75000000D02*
X121000000Y-73500000D01*
D23*
X107250000Y-70000000D02*
X107250000Y-68250000D01*
D25*
X125250000Y-71500000D02*
X125250000Y-70250000D01*
D23*
X98000000Y-88500000D02*
X98000000Y-92500000D01*
D25*
X123250000Y-72500000D02*
X122250000Y-72500000D01*
X116250000Y-73500000D02*
X117500000Y-73500000D01*
X121000000Y-72500000D02*
X121000000Y-71250000D01*
X116250000Y-77500000D02*
X117500000Y-77500000D01*
D23*
X92210000Y-72525000D02*
X92000000Y-72735000D01*
X104000000Y-69750000D02*
X104000000Y-68250000D01*
X105500000Y-71250000D02*
X105500000Y-70000000D01*
D25*
X124250000Y-74750000D02*
X123250000Y-74750000D01*
X120750000Y-69962500D02*
X123750000Y-69962500D01*
X122250000Y-71500000D02*
X123250000Y-71500000D01*
X121250000Y-71500000D02*
X121000000Y-71250000D01*
X115750000Y-70000000D02*
X120712500Y-70000000D01*
X120712500Y-70000000D02*
X120750000Y-69962500D01*
X116250000Y-72500000D02*
X116250000Y-71250000D01*
X123250000Y-75750000D02*
X124250000Y-75750000D01*
D23*
X99250000Y-71250000D02*
X99250000Y-72525000D01*
X100750000Y-70000000D02*
X100750000Y-68500000D01*
D25*
X123250000Y-73500000D02*
X124250000Y-73500000D01*
X121000000Y-76025000D02*
X122975000Y-76025000D01*
X123250000Y-74750000D02*
X121250000Y-74750000D01*
D23*
X102000000Y-72525000D02*
X104475000Y-72525000D01*
D25*
X124962500Y-69962500D02*
X123750000Y-69962500D01*
D23*
X102500000Y-71250000D02*
X100750000Y-71250000D01*
D25*
X124250000Y-71500000D02*
X125250000Y-71500000D01*
D23*
X105500000Y-70000000D02*
X107250000Y-70000000D01*
X104000000Y-66750000D02*
X102500000Y-66750000D01*
X99250000Y-72525000D02*
X92210000Y-72525000D01*
D25*
X118750000Y-77500000D02*
X118750000Y-76250000D01*
X117500000Y-71250000D02*
X118750000Y-71250000D01*
X125250000Y-70250000D02*
X124962500Y-69962500D01*
X119750000Y-73500000D02*
X121000000Y-73500000D01*
D23*
X102000000Y-72525000D02*
X99250000Y-72525000D01*
D25*
X107925003Y-72624999D02*
X106425001Y-72624999D01*
X121000000Y-71250000D02*
X121000000Y-70212500D01*
D23*
X99250000Y-68500000D02*
X99250000Y-70000000D01*
D25*
X121000000Y-73500000D02*
X122250000Y-73500000D01*
D23*
X102500000Y-68250000D02*
X102500000Y-69750000D01*
X105500000Y-68250000D02*
X104000000Y-68250000D01*
X105500000Y-71250000D02*
X104000000Y-71250000D01*
D22*
X92000000Y-72735000D02*
X92000000Y-65500000D01*
D25*
X122250000Y-71500000D02*
X121250000Y-71500000D01*
D23*
X107250000Y-66750000D02*
X107250000Y-68250000D01*
D25*
X117500000Y-73500000D02*
X118750000Y-73500000D01*
X121000000Y-75000000D02*
X118750000Y-75000000D01*
X118750000Y-75000000D02*
X117500000Y-75000000D01*
X125250000Y-72500000D02*
X124250000Y-72500000D01*
D22*
X132250000Y-92500000D02*
X128500000Y-92500000D01*
D25*
X121000000Y-76025000D02*
X121000000Y-75000000D01*
X117500000Y-75000000D02*
X116250000Y-75000000D01*
D23*
X104475000Y-72525000D02*
X105500000Y-73550000D01*
D25*
X117500000Y-76250000D02*
X116250000Y-76250000D01*
X106425001Y-72624999D02*
X105500000Y-73550000D01*
X121000000Y-72500000D02*
X119750000Y-72500000D01*
D23*
X105500000Y-68250000D02*
X105500000Y-66750000D01*
D25*
X119750000Y-71250000D02*
X121000000Y-71250000D01*
X118750000Y-72500000D02*
X117500000Y-72500000D01*
X121000000Y-73500000D02*
X121000000Y-72500000D01*
X121000000Y-70212500D02*
X120750000Y-69962500D01*
X121000000Y-76025000D02*
X118975000Y-76025000D01*
D23*
X100750000Y-66750000D02*
X99250000Y-66750000D01*
X105500000Y-73550000D02*
X105500000Y-71250000D01*
D25*
X121250000Y-74750000D02*
X121000000Y-75000000D01*
X118975000Y-76025000D02*
X118750000Y-76250000D01*
X125250000Y-73500000D02*
X125250000Y-74750000D01*
D24*
X108875001Y-72624999D02*
X108875001Y-63450001D01*
X108875001Y-63450001D02*
X108750000Y-63325000D01*
D23*
X121000000Y-87150000D02*
X121350000Y-87500000D01*
X121000000Y-78975000D02*
X121000000Y-87150000D01*
X121350000Y-87500000D02*
X121350000Y-87350000D01*
X132250000Y-78525000D02*
X132250000Y-85750000D01*
X121000000Y-78975000D02*
X131800000Y-78975000D01*
X131800000Y-78975000D02*
X132250000Y-78525000D01*
X121350000Y-87350000D02*
X121000000Y-87000000D01*
D24*
X103500000Y-61500000D02*
X102500000Y-62500000D01*
X102500000Y-62500000D02*
X96500000Y-62500000D01*
X108750000Y-61500000D02*
X103500000Y-61500000D01*
X109825002Y-71674998D02*
X114462500Y-67037500D01*
X109825002Y-72624999D02*
X109825002Y-71674998D01*
D23*
X123787500Y-67000000D02*
X123750000Y-67037500D01*
X132250000Y-67000000D02*
X123787500Y-67000000D01*
X123750000Y-67037500D02*
X120750000Y-67037500D01*
D22*
X132250000Y-75985000D02*
X132250000Y-67000000D01*
D24*
X114462500Y-67037500D02*
X120750000Y-67037500D01*
G04 #@! TA.AperFunction,Conductor*
G36*
X136345788Y-58519454D02*
G01*
X136426570Y-58573430D01*
X136480546Y-58654212D01*
X136499500Y-58749500D01*
X136499500Y-96250500D01*
X136480546Y-96345788D01*
X136426570Y-96426570D01*
X136345788Y-96480546D01*
X136250500Y-96499500D01*
X88749500Y-96499500D01*
X88654212Y-96480546D01*
X88573430Y-96426570D01*
X88519454Y-96345788D01*
X88500500Y-96250500D01*
X88500500Y-94436355D01*
X88519454Y-94341067D01*
X88573430Y-94260285D01*
X88654212Y-94206309D01*
X88749500Y-94187355D01*
X88844788Y-94206309D01*
X88925570Y-94260285D01*
X88979546Y-94341067D01*
X88996916Y-94408310D01*
X89017481Y-94589745D01*
X89028685Y-94641246D01*
X89028693Y-94641279D01*
X89053214Y-94732931D01*
X89053218Y-94732945D01*
X89134306Y-94919523D01*
X89134307Y-94919526D01*
X89251300Y-95085975D01*
X89251305Y-95085980D01*
X89297055Y-95138778D01*
X89416168Y-95255179D01*
X89585264Y-95368308D01*
X89773671Y-95445083D01*
X89840710Y-95464768D01*
X89911964Y-95482518D01*
X89921598Y-95484918D01*
X90123331Y-95505432D01*
X90124000Y-95505500D01*
X90124006Y-95505500D01*
X95125967Y-95505500D01*
X95126000Y-95505500D01*
X95137588Y-95505433D01*
X95339743Y-95482519D01*
X95391254Y-95471313D01*
X95482938Y-95446784D01*
X95669527Y-95365692D01*
X95835974Y-95248700D01*
X95888778Y-95202945D01*
X96005179Y-95083832D01*
X96118308Y-94914736D01*
X96195083Y-94726329D01*
X96214768Y-94659290D01*
X96234917Y-94578406D01*
X96255500Y-94376000D01*
X96255500Y-93343727D01*
X96274454Y-93248439D01*
X96328430Y-93167657D01*
X96409212Y-93113681D01*
X96504500Y-93094727D01*
X96599788Y-93113681D01*
X96680570Y-93167657D01*
X96734546Y-93248439D01*
X96752073Y-93317110D01*
X96756401Y-93357371D01*
X96756403Y-93357378D01*
X96806646Y-93492087D01*
X96892810Y-93607187D01*
X96892812Y-93607189D01*
X97007912Y-93693353D01*
X97142621Y-93743596D01*
X97142628Y-93743598D01*
X97202167Y-93749999D01*
X97202175Y-93750000D01*
X97749999Y-93750000D01*
X97750000Y-93749999D01*
X97750000Y-92750001D01*
X98250000Y-92750001D01*
X98250000Y-93749999D01*
X98250001Y-93750000D01*
X98797825Y-93750000D01*
X98797832Y-93749999D01*
X98857371Y-93743598D01*
X98857378Y-93743596D01*
X98992087Y-93693353D01*
X99107187Y-93607189D01*
X99107189Y-93607187D01*
X99193353Y-93492087D01*
X99243596Y-93357378D01*
X99243598Y-93357371D01*
X99249999Y-93297832D01*
X99250000Y-93297825D01*
X99250000Y-92750001D01*
X99249999Y-92750000D01*
X98250001Y-92750000D01*
X98250000Y-92750001D01*
X97750000Y-92750001D01*
X97750000Y-91250001D01*
X98250000Y-91250001D01*
X98250000Y-92249999D01*
X98250001Y-92250000D01*
X99249999Y-92250000D01*
X99250000Y-92249999D01*
X99250000Y-91702175D01*
X99249999Y-91702167D01*
X99243598Y-91642628D01*
X99243596Y-91642621D01*
X99193353Y-91507912D01*
X99107189Y-91392812D01*
X99107187Y-91392810D01*
X98992087Y-91306646D01*
X98857378Y-91256403D01*
X98857371Y-91256401D01*
X98797832Y-91250000D01*
X98250001Y-91250000D01*
X98250000Y-91250001D01*
X97750000Y-91250001D01*
X97749999Y-91250000D01*
X97202167Y-91250000D01*
X97142628Y-91256401D01*
X97142621Y-91256403D01*
X97007912Y-91306646D01*
X96892812Y-91392810D01*
X96892810Y-91392812D01*
X96806646Y-91507912D01*
X96756403Y-91642621D01*
X96756401Y-91642628D01*
X96752073Y-91682889D01*
X96723042Y-91775605D01*
X96660740Y-91850154D01*
X96574651Y-91895186D01*
X96477883Y-91903845D01*
X96385167Y-91874814D01*
X96310618Y-91812512D01*
X96265586Y-91726423D01*
X96255500Y-91656272D01*
X96255500Y-84254500D01*
X96274454Y-84159212D01*
X96328430Y-84078430D01*
X96409212Y-84024454D01*
X96504500Y-84005500D01*
X100751979Y-84005500D01*
X100751997Y-84005500D01*
X100799454Y-84004379D01*
X101000662Y-83974267D01*
X101060090Y-83959099D01*
X101184424Y-83918589D01*
X101364753Y-83824391D01*
X101429559Y-83771547D01*
X101515383Y-83726021D01*
X101612099Y-83716803D01*
X101619391Y-83717653D01*
X101868880Y-83750500D01*
X102131120Y-83750500D01*
X102374070Y-83718514D01*
X102471016Y-83724868D01*
X102545028Y-83758428D01*
X102709267Y-83868308D01*
X102897674Y-83945083D01*
X102964713Y-83964768D01*
X103045221Y-83984823D01*
X103045601Y-83984918D01*
X103236979Y-84004379D01*
X103248003Y-84005500D01*
X103995500Y-84005500D01*
X104090788Y-84024454D01*
X104171570Y-84078430D01*
X104225546Y-84159212D01*
X104244500Y-84254500D01*
X104244500Y-88964445D01*
X104247448Y-89041391D01*
X104247448Y-89041392D01*
X104283463Y-89241632D01*
X104302309Y-89307347D01*
X104318135Y-89355487D01*
X104326365Y-89380521D01*
X104416186Y-89563070D01*
X105610913Y-91474634D01*
X105620551Y-91489753D01*
X105748126Y-91648234D01*
X105786239Y-91686829D01*
X105786246Y-91686835D01*
X105860892Y-91755177D01*
X105860893Y-91755178D01*
X105891426Y-91775605D01*
X106029991Y-91868308D01*
X106218398Y-91945083D01*
X106285437Y-91964768D01*
X106365945Y-91984823D01*
X106366325Y-91984918D01*
X106563810Y-92005000D01*
X106568727Y-92005500D01*
X109751000Y-92005500D01*
X109846288Y-92024454D01*
X109927070Y-92078430D01*
X109981046Y-92159212D01*
X110000000Y-92254500D01*
X110000000Y-93750000D01*
X110000001Y-93750000D01*
X122749999Y-93750000D01*
X122750000Y-93750000D01*
X122750000Y-92750001D01*
X131000000Y-92750001D01*
X131000000Y-93297832D01*
X131006401Y-93357371D01*
X131006403Y-93357378D01*
X131056646Y-93492087D01*
X131142810Y-93607187D01*
X131142812Y-93607189D01*
X131257912Y-93693353D01*
X131392621Y-93743596D01*
X131392628Y-93743598D01*
X131452167Y-93749999D01*
X131452175Y-93750000D01*
X131999999Y-93750000D01*
X132000000Y-93749999D01*
X132000000Y-92750001D01*
X132500000Y-92750001D01*
X132500000Y-93749999D01*
X132500001Y-93750000D01*
X133047825Y-93750000D01*
X133047832Y-93749999D01*
X133107371Y-93743598D01*
X133107378Y-93743596D01*
X133242087Y-93693353D01*
X133357187Y-93607189D01*
X133357189Y-93607187D01*
X133443353Y-93492087D01*
X133493596Y-93357378D01*
X133493598Y-93357371D01*
X133499999Y-93297832D01*
X133500000Y-93297825D01*
X133500000Y-92750001D01*
X133499999Y-92750000D01*
X132500001Y-92750000D01*
X132500000Y-92750001D01*
X132000000Y-92750001D01*
X131999999Y-92750000D01*
X131000001Y-92750000D01*
X131000000Y-92750001D01*
X122750000Y-92750001D01*
X122750000Y-92254500D01*
X122768954Y-92159212D01*
X122822930Y-92078430D01*
X122903712Y-92024454D01*
X122999000Y-92005500D01*
X128365770Y-92005500D01*
X128365772Y-92005500D01*
X128388778Y-92005048D01*
X128393669Y-92005000D01*
X130751000Y-92005000D01*
X130846288Y-92023954D01*
X130927070Y-92077930D01*
X130981046Y-92158712D01*
X130999006Y-92249005D01*
X131000001Y-92250000D01*
X133499999Y-92250000D01*
X133500000Y-92249999D01*
X133500000Y-91702175D01*
X133499999Y-91702167D01*
X133493598Y-91642628D01*
X133493596Y-91642621D01*
X133443353Y-91507912D01*
X133357189Y-91392812D01*
X133357187Y-91392810D01*
X133242087Y-91306646D01*
X133107378Y-91256403D01*
X133107371Y-91256401D01*
X133047832Y-91250000D01*
X132567375Y-91250000D01*
X132472087Y-91231046D01*
X132391305Y-91177070D01*
X132337329Y-91096288D01*
X132318375Y-91001000D01*
X132337329Y-90905712D01*
X132368175Y-90851600D01*
X134754600Y-87669700D01*
X134823741Y-87564353D01*
X134854587Y-87510241D01*
X134907551Y-87402953D01*
X134967226Y-87208452D01*
X134986180Y-87113164D01*
X135005500Y-86917000D01*
X135005500Y-78499000D01*
X134986180Y-78302836D01*
X134967226Y-78207548D01*
X134912428Y-78024822D01*
X134828633Y-77866847D01*
X134800726Y-77773791D01*
X134810555Y-77677134D01*
X134829373Y-77632107D01*
X134907551Y-77486953D01*
X134967226Y-77292452D01*
X134986180Y-77197164D01*
X135005500Y-77001000D01*
X135005500Y-58749500D01*
X135024454Y-58654212D01*
X135078430Y-58573430D01*
X135159212Y-58519454D01*
X135254500Y-58500500D01*
X136250500Y-58500500D01*
X136345788Y-58519454D01*
G37*
G04 #@! TD.AperFunction*
G04 #@! TA.AperFunction,Conductor*
G36*
X118736835Y-68156954D02*
G01*
X118817617Y-68210930D01*
X118861516Y-68270319D01*
X118932907Y-68404908D01*
X118986883Y-68485690D01*
X119107450Y-68633553D01*
X119264300Y-68763109D01*
X119264302Y-68763111D01*
X119264305Y-68763113D01*
X119264310Y-68763117D01*
X119345092Y-68817093D01*
X119418393Y-68856571D01*
X119422220Y-68858633D01*
X119497126Y-68920505D01*
X119542654Y-69006332D01*
X119551871Y-69103049D01*
X119523374Y-69195931D01*
X119516077Y-69208576D01*
X119440642Y-69330876D01*
X119440640Y-69330879D01*
X119385495Y-69497298D01*
X119385494Y-69497305D01*
X119375000Y-69600018D01*
X119375000Y-69712499D01*
X119375001Y-69712500D01*
X122150357Y-69712500D01*
X122154706Y-69709594D01*
X122249993Y-69690638D01*
X122249994Y-69690638D01*
X122345282Y-69709590D01*
X122349637Y-69712500D01*
X125124998Y-69712500D01*
X125124999Y-69712499D01*
X125124999Y-69600032D01*
X125124998Y-69600015D01*
X125114505Y-69497300D01*
X125114504Y-69497297D01*
X125060003Y-69332822D01*
X125048022Y-69236409D01*
X125073849Y-69142749D01*
X125133552Y-69066103D01*
X125218042Y-69018139D01*
X125296364Y-69005500D01*
X126245500Y-69005500D01*
X126340788Y-69024454D01*
X126421570Y-69078430D01*
X126475546Y-69159212D01*
X126494500Y-69254500D01*
X126494500Y-76995500D01*
X126475546Y-77090788D01*
X126421570Y-77171570D01*
X126340788Y-77225546D01*
X126245500Y-77244500D01*
X122867301Y-77244500D01*
X122772013Y-77225546D01*
X122691231Y-77171570D01*
X122637255Y-77090788D01*
X122618301Y-76995500D01*
X122637255Y-76900212D01*
X122683995Y-76830258D01*
X122683319Y-76829724D01*
X122689992Y-76821283D01*
X122691231Y-76819430D01*
X122692315Y-76818345D01*
X122692318Y-76818341D01*
X122784358Y-76669121D01*
X122784359Y-76669120D01*
X122839504Y-76502701D01*
X122839505Y-76502694D01*
X122849999Y-76399981D01*
X122850000Y-76399971D01*
X122850000Y-76275001D01*
X122849999Y-76275000D01*
X119150002Y-76275000D01*
X119150001Y-76275001D01*
X119150001Y-76399984D01*
X119160494Y-76502699D01*
X119160495Y-76502702D01*
X119215640Y-76669119D01*
X119215641Y-76669121D01*
X119307681Y-76818341D01*
X119307684Y-76818345D01*
X119320498Y-76831159D01*
X119374474Y-76911941D01*
X119393428Y-77007229D01*
X119374474Y-77102517D01*
X119320498Y-77183299D01*
X119239716Y-77237275D01*
X119215898Y-77245752D01*
X119193409Y-77252490D01*
X119176812Y-77254125D01*
X119085441Y-77267383D01*
X118890566Y-77325825D01*
X118800807Y-77363005D01*
X118781688Y-77373223D01*
X118758701Y-77382744D01*
X118758689Y-77382748D01*
X118757042Y-77383431D01*
X118753199Y-77384393D01*
X118746570Y-77386380D01*
X118744474Y-77386579D01*
X118686154Y-77401189D01*
X118552838Y-77414319D01*
X118552836Y-77414319D01*
X118457550Y-77433273D01*
X118457544Y-77433275D01*
X118274821Y-77488072D01*
X118274818Y-77488073D01*
X118095086Y-77583410D01*
X118014310Y-77637383D01*
X117866446Y-77757950D01*
X117736890Y-77914800D01*
X117736888Y-77914802D01*
X117682903Y-77995598D01*
X117682899Y-77995604D01*
X117592449Y-78163546D01*
X117532774Y-78358045D01*
X117513819Y-78453337D01*
X117494500Y-78649497D01*
X117494500Y-81001000D01*
X117475546Y-81096288D01*
X117421570Y-81177070D01*
X117340788Y-81231046D01*
X117245500Y-81250000D01*
X113057247Y-81250000D01*
X112961959Y-81231046D01*
X112927780Y-81213695D01*
X111113345Y-80109256D01*
X111041805Y-80043521D01*
X111000867Y-79955413D01*
X110996762Y-79858344D01*
X111030117Y-79767094D01*
X111095852Y-79695554D01*
X111154503Y-79664726D01*
X111154501Y-79664721D01*
X111154588Y-79664681D01*
X111160580Y-79661532D01*
X111164679Y-79660097D01*
X111164678Y-79660097D01*
X111164683Y-79660096D01*
X111369626Y-79567007D01*
X111554654Y-79438819D01*
X111713819Y-79279654D01*
X111842007Y-79094626D01*
X111935096Y-78889683D01*
X111990096Y-78671412D01*
X112000500Y-78539217D01*
X112000499Y-77460784D01*
X111990096Y-77328588D01*
X111935096Y-77110317D01*
X111842007Y-76905374D01*
X111790591Y-76831159D01*
X111713822Y-76720350D01*
X111713816Y-76720342D01*
X111673429Y-76679955D01*
X111619453Y-76599173D01*
X111600500Y-76503887D01*
X111600500Y-75963390D01*
X111600498Y-75963374D01*
X111573403Y-75792299D01*
X111573401Y-75792291D01*
X111562162Y-75757703D01*
X111562160Y-75757698D01*
X111550115Y-75720627D01*
X111527177Y-75650032D01*
X111527172Y-75650018D01*
X119150000Y-75650018D01*
X119150000Y-75774999D01*
X119150001Y-75775000D01*
X120749999Y-75775000D01*
X120750000Y-75774999D01*
X120750000Y-74950001D01*
X121250000Y-74950001D01*
X121250000Y-75774999D01*
X121250001Y-75775000D01*
X122849998Y-75775000D01*
X122849999Y-75774999D01*
X122849999Y-75650032D01*
X122849998Y-75650015D01*
X122839505Y-75547300D01*
X122839504Y-75547297D01*
X122784359Y-75380880D01*
X122784358Y-75380878D01*
X122692318Y-75231658D01*
X122692315Y-75231654D01*
X122568345Y-75107684D01*
X122568341Y-75107681D01*
X122419121Y-75015641D01*
X122419120Y-75015640D01*
X122252701Y-74960495D01*
X122252694Y-74960494D01*
X122149981Y-74950000D01*
X121250001Y-74950000D01*
X121250000Y-74950001D01*
X120750000Y-74950001D01*
X120749999Y-74950000D01*
X119850023Y-74950000D01*
X119747300Y-74960494D01*
X119747297Y-74960495D01*
X119580880Y-75015640D01*
X119580878Y-75015641D01*
X119431658Y-75107681D01*
X119431654Y-75107684D01*
X119307684Y-75231654D01*
X119307681Y-75231658D01*
X119215641Y-75380878D01*
X119215640Y-75380879D01*
X119160495Y-75547298D01*
X119160494Y-75547305D01*
X119150000Y-75650018D01*
X111527172Y-75650018D01*
X111519873Y-75627551D01*
X111441232Y-75473209D01*
X111374149Y-75380878D01*
X111339417Y-75333073D01*
X111339413Y-75333068D01*
X111198431Y-75192085D01*
X111144455Y-75111303D01*
X111125501Y-75016016D01*
X111125501Y-74816967D01*
X111125500Y-74816955D01*
X111120882Y-74765013D01*
X111114888Y-74697581D01*
X111058911Y-74501950D01*
X110964700Y-74321592D01*
X110836111Y-74163890D01*
X110836108Y-74163888D01*
X110830780Y-74157353D01*
X110785253Y-74071525D01*
X110776036Y-73974809D01*
X110804533Y-73881927D01*
X110830780Y-73842645D01*
X110836108Y-73836109D01*
X110836111Y-73836108D01*
X110964700Y-73678406D01*
X111058911Y-73498048D01*
X111114888Y-73302417D01*
X111125502Y-73183036D01*
X111125501Y-72066963D01*
X111125339Y-72065142D01*
X111124689Y-72057823D01*
X111135129Y-71961231D01*
X111181738Y-71875986D01*
X111196628Y-71859712D01*
X112843840Y-70212501D01*
X119375001Y-70212501D01*
X119375001Y-70324984D01*
X119385494Y-70427699D01*
X119385495Y-70427702D01*
X119440640Y-70594119D01*
X119440641Y-70594121D01*
X119532681Y-70743341D01*
X119532684Y-70743345D01*
X119656654Y-70867315D01*
X119656658Y-70867318D01*
X119805878Y-70959358D01*
X119805879Y-70959359D01*
X119972298Y-71014504D01*
X119972305Y-71014505D01*
X120075023Y-71024999D01*
X120500000Y-71024999D01*
X120500000Y-70212501D01*
X121000000Y-70212501D01*
X121000000Y-71024998D01*
X121000001Y-71024999D01*
X121424968Y-71024999D01*
X121424984Y-71024998D01*
X121527699Y-71014505D01*
X121527702Y-71014504D01*
X121694119Y-70959359D01*
X121694121Y-70959358D01*
X121843341Y-70867318D01*
X121843345Y-70867315D01*
X121967317Y-70743343D01*
X122038071Y-70628633D01*
X122104227Y-70557481D01*
X122192576Y-70517063D01*
X122289666Y-70513531D01*
X122380718Y-70547422D01*
X122451870Y-70613578D01*
X122461929Y-70628633D01*
X122532682Y-70743343D01*
X122656654Y-70867315D01*
X122656658Y-70867318D01*
X122805878Y-70959358D01*
X122805879Y-70959359D01*
X122972298Y-71014504D01*
X122972305Y-71014505D01*
X123075023Y-71024999D01*
X123500000Y-71024999D01*
X123500000Y-70212501D01*
X124000000Y-70212501D01*
X124000000Y-71024998D01*
X124000001Y-71024999D01*
X124424968Y-71024999D01*
X124424984Y-71024998D01*
X124527699Y-71014505D01*
X124527702Y-71014504D01*
X124694119Y-70959359D01*
X124694121Y-70959358D01*
X124843341Y-70867318D01*
X124843345Y-70867315D01*
X124967315Y-70743345D01*
X124967318Y-70743341D01*
X125059358Y-70594121D01*
X125059359Y-70594120D01*
X125114504Y-70427701D01*
X125114505Y-70427694D01*
X125124999Y-70324981D01*
X125125000Y-70324971D01*
X125125000Y-70212501D01*
X125124999Y-70212500D01*
X124000001Y-70212500D01*
X124000000Y-70212501D01*
X123500000Y-70212501D01*
X123499999Y-70212500D01*
X122349640Y-70212500D01*
X122345293Y-70215405D01*
X122345287Y-70215406D01*
X122345283Y-70215409D01*
X122299653Y-70224484D01*
X122250005Y-70234361D01*
X122249999Y-70234359D01*
X122249994Y-70234361D01*
X122200345Y-70224484D01*
X122154717Y-70215409D01*
X122154712Y-70215406D01*
X122154707Y-70215405D01*
X122150359Y-70212500D01*
X121000001Y-70212500D01*
X121000000Y-70212501D01*
X120500000Y-70212501D01*
X120499999Y-70212500D01*
X119375002Y-70212500D01*
X119375001Y-70212501D01*
X112843840Y-70212501D01*
X114845412Y-68210930D01*
X114926194Y-68156954D01*
X115021482Y-68138000D01*
X118641547Y-68138000D01*
X118736835Y-68156954D01*
G37*
G04 #@! TD.AperFunction*
G04 #@! TA.AperFunction,Conductor*
G36*
X118590788Y-58519454D02*
G01*
X118671570Y-58573430D01*
X118725546Y-58654212D01*
X118744500Y-58749500D01*
X118744500Y-65688000D01*
X118725546Y-65783288D01*
X118671570Y-65864070D01*
X118590788Y-65918046D01*
X118495500Y-65937000D01*
X114375889Y-65937000D01*
X114352496Y-65940704D01*
X114352493Y-65940704D01*
X114204801Y-65964096D01*
X114040051Y-66017628D01*
X114040050Y-66017628D01*
X113885721Y-66096262D01*
X113885716Y-66096265D01*
X113885712Y-66096268D01*
X113783895Y-66170242D01*
X113783894Y-66170243D01*
X113783893Y-66170242D01*
X113745577Y-66198081D01*
X110400571Y-69543087D01*
X110319789Y-69597063D01*
X110224501Y-69616017D01*
X110129213Y-69597063D01*
X110048431Y-69543087D01*
X109994455Y-69462305D01*
X109975501Y-69367017D01*
X109975501Y-64683611D01*
X109994455Y-64588323D01*
X110048428Y-64507544D01*
X110163819Y-64392154D01*
X110292007Y-64207126D01*
X110385096Y-64002183D01*
X110440096Y-63783912D01*
X110444008Y-63734214D01*
X110450499Y-63651727D01*
X110450500Y-63651717D01*
X110450499Y-62998284D01*
X110440096Y-62866088D01*
X110385096Y-62647817D01*
X110324983Y-62515475D01*
X110302834Y-62420880D01*
X110318571Y-62325008D01*
X110324984Y-62309524D01*
X110385096Y-62177183D01*
X110440096Y-61958912D01*
X110450500Y-61826717D01*
X110450499Y-61173284D01*
X110440096Y-61041088D01*
X110385096Y-60822817D01*
X110292007Y-60617874D01*
X110292003Y-60617868D01*
X110163822Y-60432850D01*
X110163821Y-60432849D01*
X110163819Y-60432846D01*
X110004654Y-60273681D01*
X110004650Y-60273678D01*
X110004649Y-60273677D01*
X109819631Y-60145496D01*
X109819629Y-60145495D01*
X109819626Y-60145493D01*
X109682776Y-60083333D01*
X109614686Y-60052405D01*
X109614684Y-60052404D01*
X109614683Y-60052404D01*
X109396412Y-59997404D01*
X109396411Y-59997403D01*
X109396408Y-59997403D01*
X109396405Y-59997402D01*
X109264222Y-59987000D01*
X108235791Y-59987000D01*
X108103587Y-59997404D01*
X107885313Y-60052405D01*
X107731941Y-60122070D01*
X107680374Y-60145493D01*
X107680372Y-60145493D01*
X107680368Y-60145496D01*
X107495350Y-60273677D01*
X107495346Y-60273680D01*
X107495346Y-60273681D01*
X107442454Y-60326572D01*
X107361676Y-60380546D01*
X107266388Y-60399500D01*
X103413389Y-60399500D01*
X103389996Y-60403204D01*
X103389993Y-60403204D01*
X103242301Y-60426596D01*
X103077554Y-60480127D01*
X102923208Y-60558770D01*
X102863784Y-60601945D01*
X102775554Y-60642620D01*
X102717425Y-60649500D01*
X101591968Y-60649500D01*
X101591956Y-60649501D01*
X101472585Y-60660113D01*
X101276954Y-60716090D01*
X101276946Y-60716093D01*
X101096597Y-60810299D01*
X101096592Y-60810302D01*
X100938893Y-60938889D01*
X100938889Y-60938893D01*
X100810302Y-61096592D01*
X100810299Y-61096597D01*
X100721924Y-61265785D01*
X100661006Y-61341469D01*
X100575762Y-61388080D01*
X100501220Y-61399500D01*
X98346545Y-61399500D01*
X98251257Y-61380546D01*
X98170475Y-61326570D01*
X98125841Y-61265786D01*
X98089698Y-61196593D01*
X97961109Y-61038891D01*
X97803407Y-60910302D01*
X97803402Y-60910299D01*
X97623053Y-60816093D01*
X97623052Y-60816092D01*
X97623049Y-60816091D01*
X97427418Y-60760114D01*
X97308037Y-60749500D01*
X97308035Y-60749500D01*
X95691968Y-60749500D01*
X95691956Y-60749501D01*
X95572585Y-60760113D01*
X95376954Y-60816090D01*
X95376946Y-60816093D01*
X95196597Y-60910299D01*
X95196592Y-60910302D01*
X95038893Y-61038889D01*
X95038889Y-61038893D01*
X94910302Y-61196592D01*
X94910299Y-61196597D01*
X94816093Y-61376946D01*
X94816090Y-61376954D01*
X94760115Y-61572578D01*
X94760114Y-61572582D01*
X94749500Y-61691963D01*
X94749500Y-63308031D01*
X94749501Y-63308043D01*
X94760113Y-63427414D01*
X94760113Y-63427417D01*
X94760114Y-63427418D01*
X94788729Y-63527421D01*
X94816090Y-63623045D01*
X94816093Y-63623053D01*
X94900118Y-63783912D01*
X94910302Y-63803407D01*
X95038891Y-63961109D01*
X95196593Y-64089698D01*
X95376951Y-64183909D01*
X95572582Y-64239886D01*
X95691963Y-64250500D01*
X97308036Y-64250499D01*
X97427418Y-64239886D01*
X97623049Y-64183909D01*
X97803407Y-64089698D01*
X97961109Y-63961109D01*
X98089698Y-63803407D01*
X98125841Y-63734212D01*
X98186759Y-63658530D01*
X98272003Y-63611919D01*
X98346545Y-63600500D01*
X100501220Y-63600500D01*
X100596508Y-63619454D01*
X100677290Y-63673430D01*
X100721922Y-63734213D01*
X100810302Y-63903407D01*
X100938891Y-64061109D01*
X101096593Y-64189698D01*
X101276951Y-64283909D01*
X101472582Y-64339886D01*
X101591963Y-64350500D01*
X103408036Y-64350499D01*
X103527418Y-64339886D01*
X103723049Y-64283909D01*
X103903407Y-64189698D01*
X104061109Y-64061109D01*
X104189698Y-63903407D01*
X104283909Y-63723049D01*
X104339886Y-63527418D01*
X104350500Y-63408037D01*
X104350500Y-62849500D01*
X104369454Y-62754212D01*
X104423430Y-62673430D01*
X104504212Y-62619454D01*
X104599500Y-62600500D01*
X106811439Y-62600500D01*
X106906727Y-62619454D01*
X106987509Y-62673430D01*
X107041485Y-62754212D01*
X107060439Y-62849500D01*
X107059671Y-62869035D01*
X107049500Y-62998269D01*
X107049500Y-63651708D01*
X107055114Y-63723045D01*
X107059904Y-63783912D01*
X107114904Y-64002183D01*
X107207993Y-64207126D01*
X107207995Y-64207129D01*
X107207996Y-64207131D01*
X107336177Y-64392149D01*
X107336178Y-64392150D01*
X107336181Y-64392154D01*
X107495346Y-64551319D01*
X107667303Y-64670452D01*
X107734836Y-64740296D01*
X107770499Y-64830668D01*
X107774501Y-64875129D01*
X107774501Y-71380119D01*
X107755547Y-71475407D01*
X107701571Y-71556189D01*
X107620789Y-71610165D01*
X107552122Y-71627692D01*
X107517629Y-71631400D01*
X107517624Y-71631402D01*
X107382915Y-71681645D01*
X107267815Y-71767809D01*
X107267813Y-71767811D01*
X107181649Y-71882911D01*
X107131406Y-72017620D01*
X107131404Y-72017627D01*
X107125003Y-72077166D01*
X107125003Y-72374998D01*
X107125004Y-72374999D01*
X107325501Y-72374999D01*
X107372585Y-72384364D01*
X107420674Y-72393905D01*
X107420727Y-72393940D01*
X107420789Y-72393953D01*
X107460826Y-72420704D01*
X107501483Y-72447841D01*
X107501518Y-72447893D01*
X107501571Y-72447929D01*
X107528659Y-72488470D01*
X107555499Y-72528596D01*
X107555511Y-72528657D01*
X107555547Y-72528711D01*
X107574501Y-72623875D01*
X107574502Y-72625875D01*
X107555596Y-72721172D01*
X107501660Y-72801981D01*
X107420905Y-72855997D01*
X107325626Y-72874999D01*
X107125004Y-72874999D01*
X107120733Y-72879269D01*
X107106049Y-72953094D01*
X107052073Y-73033876D01*
X106971291Y-73087852D01*
X106876003Y-73106806D01*
X106780715Y-73087852D01*
X106699933Y-73033876D01*
X106664075Y-72988525D01*
X106567318Y-72831658D01*
X106567315Y-72831654D01*
X106443345Y-72707684D01*
X106443341Y-72707681D01*
X106294121Y-72615641D01*
X106294120Y-72615640D01*
X106127701Y-72560495D01*
X106127694Y-72560494D01*
X106024981Y-72550000D01*
X105750001Y-72550000D01*
X105750000Y-72550001D01*
X105750000Y-73301000D01*
X105731046Y-73396288D01*
X105677070Y-73477070D01*
X105596288Y-73531046D01*
X105501000Y-73550000D01*
X105499000Y-73550000D01*
X105403712Y-73531046D01*
X105322930Y-73477070D01*
X105268954Y-73396288D01*
X105250000Y-73301000D01*
X105250000Y-72550001D01*
X105249999Y-72550000D01*
X104975024Y-72550000D01*
X104872300Y-72560494D01*
X104872297Y-72560495D01*
X104705880Y-72615640D01*
X104705878Y-72615641D01*
X104556658Y-72707681D01*
X104556654Y-72707684D01*
X104432684Y-72831654D01*
X104432681Y-72831658D01*
X104340641Y-72980878D01*
X104340639Y-72980882D01*
X104334498Y-72999415D01*
X104286532Y-73083903D01*
X104209884Y-73143604D01*
X104116224Y-73169429D01*
X104019811Y-73157446D01*
X103935323Y-73109480D01*
X103875622Y-73032832D01*
X103849797Y-72939172D01*
X103850280Y-72906342D01*
X103849677Y-72906312D01*
X103850000Y-72899971D01*
X103850000Y-72775001D01*
X103849999Y-72775000D01*
X100150002Y-72775000D01*
X100150001Y-72775001D01*
X100150001Y-72899984D01*
X100160494Y-73002699D01*
X100160495Y-73002701D01*
X100208370Y-73147178D01*
X100220351Y-73243591D01*
X100194524Y-73337250D01*
X100134821Y-73413896D01*
X100050331Y-73461861D01*
X99972009Y-73474500D01*
X93521915Y-73474500D01*
X93426627Y-73455546D01*
X93345845Y-73401570D01*
X93291869Y-73320788D01*
X93272915Y-73225500D01*
X93285102Y-73148556D01*
X93316758Y-73051126D01*
X93316758Y-73051125D01*
X93349999Y-72841256D01*
X93350000Y-72841244D01*
X93350000Y-72628755D01*
X93349999Y-72628743D01*
X93316758Y-72418876D01*
X93252344Y-72220627D01*
X93252342Y-72220622D01*
X93251093Y-72216777D01*
X93251091Y-72216774D01*
X93217077Y-72150018D01*
X100150000Y-72150018D01*
X100150000Y-72274999D01*
X100150001Y-72275000D01*
X101749999Y-72275000D01*
X101750000Y-72274999D01*
X101750000Y-71450001D01*
X102250000Y-71450001D01*
X102250000Y-72274999D01*
X102250001Y-72275000D01*
X103849998Y-72275000D01*
X103849999Y-72274999D01*
X103849999Y-72150032D01*
X103849998Y-72150015D01*
X103839505Y-72047300D01*
X103839504Y-72047297D01*
X103784359Y-71880880D01*
X103784358Y-71880878D01*
X103692318Y-71731658D01*
X103692315Y-71731654D01*
X103568345Y-71607684D01*
X103568341Y-71607681D01*
X103419121Y-71515641D01*
X103419120Y-71515640D01*
X103252701Y-71460495D01*
X103252694Y-71460494D01*
X103149981Y-71450000D01*
X102250001Y-71450000D01*
X102250000Y-71450001D01*
X101750000Y-71450001D01*
X101749999Y-71450000D01*
X100850023Y-71450000D01*
X100747300Y-71460494D01*
X100747297Y-71460495D01*
X100580880Y-71515640D01*
X100580878Y-71515641D01*
X100431658Y-71607681D01*
X100431654Y-71607684D01*
X100307684Y-71731654D01*
X100307681Y-71731658D01*
X100215641Y-71880878D01*
X100215640Y-71880879D01*
X100160495Y-72047298D01*
X100160494Y-72047305D01*
X100150000Y-72150018D01*
X93217077Y-72150018D01*
X93154624Y-72027448D01*
X93115270Y-71973282D01*
X92482962Y-72605590D01*
X92465925Y-72542007D01*
X92400099Y-72427993D01*
X92307007Y-72334901D01*
X92192993Y-72269075D01*
X92129407Y-72252036D01*
X92761717Y-71619729D01*
X92707551Y-71580375D01*
X92707545Y-71580371D01*
X92518225Y-71483908D01*
X92518215Y-71483904D01*
X92316123Y-71418241D01*
X92106256Y-71385000D01*
X91893743Y-71385000D01*
X91683876Y-71418241D01*
X91481784Y-71483904D01*
X91481774Y-71483908D01*
X91292454Y-71580372D01*
X91292441Y-71580380D01*
X91238281Y-71619728D01*
X91870591Y-72252037D01*
X91807007Y-72269075D01*
X91692993Y-72334901D01*
X91599901Y-72427993D01*
X91534075Y-72542007D01*
X91517037Y-72605591D01*
X90884728Y-71973281D01*
X90845380Y-72027441D01*
X90845372Y-72027454D01*
X90748908Y-72216774D01*
X90748904Y-72216784D01*
X90683241Y-72418876D01*
X90650000Y-72628743D01*
X90650000Y-72841256D01*
X90683241Y-73051123D01*
X90721397Y-73168555D01*
X90732816Y-73265036D01*
X90706445Y-73358544D01*
X90646296Y-73434841D01*
X90561529Y-73482313D01*
X90484584Y-73494500D01*
X90124000Y-73494500D01*
X90113074Y-73494563D01*
X90112410Y-73494567D01*
X90112407Y-73494567D01*
X89910254Y-73517481D01*
X89858753Y-73528685D01*
X89858720Y-73528693D01*
X89767068Y-73553214D01*
X89767054Y-73553218D01*
X89580476Y-73634306D01*
X89580473Y-73634307D01*
X89414024Y-73751300D01*
X89414019Y-73751305D01*
X89361231Y-73797046D01*
X89361217Y-73797059D01*
X89244825Y-73916163D01*
X89244818Y-73916172D01*
X89131692Y-74085264D01*
X89131690Y-74085266D01*
X89054920Y-74273663D01*
X89054916Y-74273673D01*
X89035233Y-74340705D01*
X89015081Y-74421598D01*
X88997222Y-74597225D01*
X88968725Y-74690107D01*
X88906853Y-74765013D01*
X88821026Y-74810540D01*
X88724309Y-74819756D01*
X88631427Y-74791259D01*
X88556521Y-74729387D01*
X88510994Y-74643560D01*
X88500500Y-74572034D01*
X88500500Y-65750001D01*
X90750000Y-65750001D01*
X90750000Y-66297832D01*
X90756401Y-66357371D01*
X90756403Y-66357378D01*
X90806646Y-66492087D01*
X90892810Y-66607187D01*
X90892812Y-66607189D01*
X91007912Y-66693353D01*
X91142621Y-66743596D01*
X91142628Y-66743598D01*
X91202167Y-66749999D01*
X91202175Y-66750000D01*
X91749999Y-66750000D01*
X91750000Y-66749999D01*
X91750000Y-65750001D01*
X92250000Y-65750001D01*
X92250000Y-66749999D01*
X92250001Y-66750000D01*
X92797825Y-66750000D01*
X92797832Y-66749999D01*
X92857371Y-66743598D01*
X92857378Y-66743596D01*
X92992087Y-66693353D01*
X93107187Y-66607189D01*
X93107189Y-66607187D01*
X93193353Y-66492087D01*
X93243596Y-66357378D01*
X93243598Y-66357371D01*
X93249999Y-66297832D01*
X93250000Y-66297825D01*
X93250000Y-65750001D01*
X93249999Y-65750000D01*
X92250001Y-65750000D01*
X92250000Y-65750001D01*
X91750000Y-65750001D01*
X91749999Y-65750000D01*
X90750001Y-65750000D01*
X90750000Y-65750001D01*
X88500500Y-65750001D01*
X88500500Y-64702167D01*
X90750000Y-64702167D01*
X90750000Y-65249999D01*
X90750001Y-65250000D01*
X91749999Y-65250000D01*
X91750000Y-65249999D01*
X91750000Y-64250001D01*
X92250000Y-64250001D01*
X92250000Y-65249999D01*
X92250001Y-65250000D01*
X93249999Y-65250000D01*
X93250000Y-65249999D01*
X93250000Y-64702175D01*
X93249999Y-64702167D01*
X93243598Y-64642628D01*
X93243596Y-64642621D01*
X93193353Y-64507912D01*
X93107189Y-64392812D01*
X93107187Y-64392810D01*
X92992087Y-64306646D01*
X92857378Y-64256403D01*
X92857371Y-64256401D01*
X92797832Y-64250000D01*
X92250001Y-64250000D01*
X92250000Y-64250001D01*
X91750000Y-64250001D01*
X91749999Y-64250000D01*
X91202167Y-64250000D01*
X91142628Y-64256401D01*
X91142621Y-64256403D01*
X91007912Y-64306646D01*
X90892812Y-64392810D01*
X90892810Y-64392812D01*
X90806646Y-64507912D01*
X90756403Y-64642621D01*
X90756401Y-64642628D01*
X90750000Y-64702167D01*
X88500500Y-64702167D01*
X88500500Y-58749500D01*
X88519454Y-58654212D01*
X88573430Y-58573430D01*
X88654212Y-58519454D01*
X88749500Y-58500500D01*
X118495500Y-58500500D01*
X118590788Y-58519454D01*
G37*
G04 #@! TD.AperFunction*
G04 #@! TA.AperFunction,Conductor*
G36*
X90593039Y-74519685D02*
G01*
X90638794Y-74572489D01*
X90650000Y-74624000D01*
X90650000Y-75025000D01*
X91566988Y-75025000D01*
X91534075Y-75082007D01*
X91500000Y-75209174D01*
X91500000Y-75340826D01*
X91534075Y-75467993D01*
X91566988Y-75525000D01*
X90650000Y-75525000D01*
X90650000Y-76172844D01*
X90656401Y-76232372D01*
X90656403Y-76232379D01*
X90706645Y-76367086D01*
X90706649Y-76367093D01*
X90792809Y-76482187D01*
X90792812Y-76482190D01*
X90907906Y-76568350D01*
X90907913Y-76568354D01*
X91042620Y-76618596D01*
X91042627Y-76618598D01*
X91102155Y-76624999D01*
X91102172Y-76625000D01*
X91750000Y-76625000D01*
X91750000Y-75708012D01*
X91807007Y-75740925D01*
X91934174Y-75775000D01*
X92065826Y-75775000D01*
X92192993Y-75740925D01*
X92250000Y-75708012D01*
X92250000Y-76625000D01*
X92897828Y-76625000D01*
X92897844Y-76624999D01*
X92957372Y-76618598D01*
X92957379Y-76618596D01*
X93092086Y-76568354D01*
X93092093Y-76568350D01*
X93207187Y-76482190D01*
X93207190Y-76482187D01*
X93293350Y-76367093D01*
X93293354Y-76367086D01*
X93343596Y-76232379D01*
X93343598Y-76232372D01*
X93349999Y-76172844D01*
X93350000Y-76172827D01*
X93350000Y-75849986D01*
X100150001Y-75849986D01*
X100160494Y-75952697D01*
X100215641Y-76119119D01*
X100215643Y-76119124D01*
X100307684Y-76268345D01*
X100431654Y-76392315D01*
X100580875Y-76484356D01*
X100580880Y-76484358D01*
X100747302Y-76539505D01*
X100747309Y-76539506D01*
X100850019Y-76549999D01*
X101749999Y-76549999D01*
X102250000Y-76549999D01*
X103149972Y-76549999D01*
X103149986Y-76549998D01*
X103252697Y-76539505D01*
X103419119Y-76484358D01*
X103419124Y-76484356D01*
X103568345Y-76392315D01*
X103692315Y-76268345D01*
X103784356Y-76119124D01*
X103784358Y-76119119D01*
X103839505Y-75952697D01*
X103839506Y-75952690D01*
X103849999Y-75849986D01*
X103850000Y-75849973D01*
X103850000Y-75749986D01*
X104275001Y-75749986D01*
X104285494Y-75852697D01*
X104340641Y-76019119D01*
X104340643Y-76019124D01*
X104432684Y-76168345D01*
X104556654Y-76292315D01*
X104705875Y-76384356D01*
X104705880Y-76384358D01*
X104872302Y-76439505D01*
X104872309Y-76439506D01*
X104975019Y-76449999D01*
X105249999Y-76449999D01*
X105250000Y-76449998D01*
X105250000Y-75700000D01*
X104275001Y-75700000D01*
X104275001Y-75749986D01*
X103850000Y-75749986D01*
X103850000Y-75725000D01*
X102250000Y-75725000D01*
X102250000Y-76549999D01*
X101749999Y-76549999D01*
X101750000Y-76549998D01*
X101750000Y-75725000D01*
X100150001Y-75725000D01*
X100150001Y-75849986D01*
X93350000Y-75849986D01*
X93350000Y-75525000D01*
X92433012Y-75525000D01*
X92465925Y-75467993D01*
X92500000Y-75340826D01*
X92500000Y-75209174D01*
X92465925Y-75082007D01*
X92433012Y-75025000D01*
X93350000Y-75025000D01*
X93350000Y-74624000D01*
X93369685Y-74556961D01*
X93422489Y-74511206D01*
X93474000Y-74500000D01*
X100197555Y-74500000D01*
X100264594Y-74519685D01*
X100310349Y-74572489D01*
X100320293Y-74641647D01*
X100303094Y-74689097D01*
X100215643Y-74830875D01*
X100215641Y-74830880D01*
X100160494Y-74997302D01*
X100160493Y-74997309D01*
X100150000Y-75100013D01*
X100150000Y-75225000D01*
X103849999Y-75225000D01*
X103849999Y-75100028D01*
X103849998Y-75100013D01*
X103839505Y-74997302D01*
X103784358Y-74830880D01*
X103784356Y-74830875D01*
X103696906Y-74689097D01*
X103678466Y-74621705D01*
X103699388Y-74555041D01*
X103753030Y-74510271D01*
X103802445Y-74500000D01*
X104364977Y-74500000D01*
X104432016Y-74519685D01*
X104477771Y-74572489D01*
X104487715Y-74641647D01*
X104458690Y-74705203D01*
X104452658Y-74711681D01*
X104432684Y-74731654D01*
X104340643Y-74880875D01*
X104340641Y-74880880D01*
X104285494Y-75047302D01*
X104285493Y-75047309D01*
X104275000Y-75150013D01*
X104275000Y-75200000D01*
X106724999Y-75200000D01*
X106724999Y-75150028D01*
X106724998Y-75150013D01*
X106714505Y-75047302D01*
X106659358Y-74880880D01*
X106659356Y-74880875D01*
X106567315Y-74731654D01*
X106547342Y-74711681D01*
X106513857Y-74650358D01*
X106518841Y-74580666D01*
X106560713Y-74524733D01*
X106626177Y-74500316D01*
X106635023Y-74500000D01*
X107052629Y-74500000D01*
X107119668Y-74519685D01*
X107165423Y-74572489D01*
X107175367Y-74641647D01*
X107168811Y-74667334D01*
X107131405Y-74767622D01*
X107131404Y-74767626D01*
X107125003Y-74827154D01*
X107125003Y-75124999D01*
X107801003Y-75124999D01*
X107868042Y-75144684D01*
X107913797Y-75197488D01*
X107925003Y-75248999D01*
X107925003Y-75500999D01*
X107905318Y-75568038D01*
X107852514Y-75613793D01*
X107801003Y-75624999D01*
X107125003Y-75624999D01*
X107125003Y-75922843D01*
X107131404Y-75982371D01*
X107131406Y-75982378D01*
X107181648Y-76117085D01*
X107185900Y-76124871D01*
X107182669Y-76126634D01*
X107200881Y-76176106D01*
X107185737Y-76244315D01*
X107136121Y-76293508D01*
X107109110Y-76304236D01*
X106631072Y-76431713D01*
X106561224Y-76429967D01*
X106503409Y-76390735D01*
X106475981Y-76326474D01*
X106487650Y-76257585D01*
X106511441Y-76224218D01*
X106567317Y-76168342D01*
X106659356Y-76019124D01*
X106659358Y-76019119D01*
X106714505Y-75852697D01*
X106714506Y-75852690D01*
X106724999Y-75749986D01*
X106725000Y-75749973D01*
X106725000Y-75700000D01*
X105750000Y-75700000D01*
X105750000Y-76449999D01*
X105768974Y-76468973D01*
X105802459Y-76530296D01*
X105797475Y-76599988D01*
X105755603Y-76655921D01*
X105713243Y-76676467D01*
X104500000Y-76999999D01*
X104500000Y-82876000D01*
X104480315Y-82943039D01*
X104427511Y-82988794D01*
X104376000Y-83000000D01*
X103248003Y-83000000D01*
X103180964Y-82980315D01*
X103135209Y-82927511D01*
X103125265Y-82858353D01*
X103148737Y-82801689D01*
X103193350Y-82742093D01*
X103193354Y-82742086D01*
X103243596Y-82607379D01*
X103243598Y-82607372D01*
X103249999Y-82547844D01*
X103250000Y-82547827D01*
X103250000Y-82000000D01*
X100750000Y-82000000D01*
X100750000Y-82547844D01*
X100756401Y-82607372D01*
X100756403Y-82607379D01*
X100806645Y-82742086D01*
X100806649Y-82742093D01*
X100851263Y-82801689D01*
X100875681Y-82867153D01*
X100860830Y-82935426D01*
X100811425Y-82984832D01*
X100751997Y-83000000D01*
X95250000Y-83000000D01*
X95250000Y-94376000D01*
X95230315Y-94443039D01*
X95177511Y-94488794D01*
X95126000Y-94500000D01*
X90124000Y-94500000D01*
X90056961Y-94480315D01*
X90011206Y-94427511D01*
X90000000Y-94376000D01*
X90000000Y-93297844D01*
X90750000Y-93297844D01*
X90756401Y-93357372D01*
X90756403Y-93357379D01*
X90806645Y-93492086D01*
X90806649Y-93492093D01*
X90892809Y-93607187D01*
X90892812Y-93607190D01*
X91007906Y-93693350D01*
X91007913Y-93693354D01*
X91142620Y-93743596D01*
X91142627Y-93743598D01*
X91202155Y-93749999D01*
X91202172Y-93750000D01*
X91750000Y-93750000D01*
X92250000Y-93750000D01*
X92797828Y-93750000D01*
X92797844Y-93749999D01*
X92857372Y-93743598D01*
X92857379Y-93743596D01*
X92992086Y-93693354D01*
X92992093Y-93693350D01*
X93107187Y-93607190D01*
X93107190Y-93607187D01*
X93193350Y-93492093D01*
X93193354Y-93492086D01*
X93243596Y-93357379D01*
X93243598Y-93357372D01*
X93249999Y-93297844D01*
X93250000Y-93297827D01*
X93250000Y-92750000D01*
X92250000Y-92750000D01*
X92250000Y-93750000D01*
X91750000Y-93750000D01*
X91750000Y-92750000D01*
X90750000Y-92750000D01*
X90750000Y-93297844D01*
X90000000Y-93297844D01*
X90000000Y-91702155D01*
X90750000Y-91702155D01*
X90750000Y-92250000D01*
X91750000Y-92250000D01*
X92250000Y-92250000D01*
X93250000Y-92250000D01*
X93250000Y-91702172D01*
X93249999Y-91702155D01*
X93243598Y-91642627D01*
X93243596Y-91642620D01*
X93193354Y-91507913D01*
X93193350Y-91507906D01*
X93107190Y-91392812D01*
X93107187Y-91392809D01*
X92992093Y-91306649D01*
X92992086Y-91306645D01*
X92857379Y-91256403D01*
X92857372Y-91256401D01*
X92797844Y-91250000D01*
X92250000Y-91250000D01*
X92250000Y-92250000D01*
X91750000Y-92250000D01*
X91750000Y-91250000D01*
X91202155Y-91250000D01*
X91142627Y-91256401D01*
X91142620Y-91256403D01*
X91007913Y-91306645D01*
X91007906Y-91306649D01*
X90892812Y-91392809D01*
X90892809Y-91392812D01*
X90806649Y-91507906D01*
X90806645Y-91507913D01*
X90756403Y-91642620D01*
X90756401Y-91642627D01*
X90750000Y-91702155D01*
X90000000Y-91702155D01*
X90000000Y-80952155D01*
X100750000Y-80952155D01*
X100750000Y-81500000D01*
X101750000Y-81500000D01*
X102250000Y-81500000D01*
X103250000Y-81500000D01*
X103250000Y-80952172D01*
X103249999Y-80952155D01*
X103243598Y-80892627D01*
X103243596Y-80892620D01*
X103193354Y-80757913D01*
X103193350Y-80757906D01*
X103107190Y-80642812D01*
X103107187Y-80642809D01*
X102992093Y-80556649D01*
X102992086Y-80556645D01*
X102857379Y-80506403D01*
X102857372Y-80506401D01*
X102797844Y-80500000D01*
X102250000Y-80500000D01*
X102250000Y-81500000D01*
X101750000Y-81500000D01*
X101750000Y-80500000D01*
X101202155Y-80500000D01*
X101142627Y-80506401D01*
X101142620Y-80506403D01*
X101007913Y-80556645D01*
X101007906Y-80556649D01*
X100892812Y-80642809D01*
X100892809Y-80642812D01*
X100806649Y-80757906D01*
X100806645Y-80757913D01*
X100756403Y-80892620D01*
X100756401Y-80892627D01*
X100750000Y-80952155D01*
X90000000Y-80952155D01*
X90000000Y-74624000D01*
X90019685Y-74556961D01*
X90072489Y-74511206D01*
X90124000Y-74500000D01*
X90526000Y-74500000D01*
X90593039Y-74519685D01*
G37*
G04 #@! TD.AperFunction*
G04 #@! TA.AperFunction,Conductor*
G36*
X133846288Y-78268954D02*
G01*
X133927070Y-78322930D01*
X133981046Y-78403712D01*
X134000000Y-78499000D01*
X134000000Y-86917000D01*
X133981046Y-87012288D01*
X133950200Y-87066400D01*
X131075075Y-90899900D01*
X131002739Y-90964758D01*
X130911089Y-90996997D01*
X130875875Y-90999500D01*
X128378491Y-90999500D01*
X128365772Y-91000000D01*
X118749000Y-91000000D01*
X118653712Y-90981046D01*
X118572930Y-90927070D01*
X118518954Y-90846288D01*
X118500000Y-90751000D01*
X118500000Y-78649500D01*
X118518954Y-78554212D01*
X118572930Y-78473430D01*
X118653712Y-78419454D01*
X118749000Y-78400500D01*
X118838691Y-78400500D01*
X119012666Y-78365894D01*
X119176547Y-78298013D01*
X119176553Y-78298009D01*
X119185601Y-78291964D01*
X119275360Y-78254784D01*
X119323937Y-78250000D01*
X133751000Y-78250000D01*
X133846288Y-78268954D01*
G37*
G04 #@! TD.AperFunction*
G04 #@! TA.AperFunction,Conductor*
G36*
X133846288Y-58519454D02*
G01*
X133927070Y-58573430D01*
X133981046Y-58654212D01*
X134000000Y-58749500D01*
X134000000Y-77001000D01*
X133981046Y-77096288D01*
X133927070Y-77177070D01*
X133846288Y-77231046D01*
X133751000Y-77250000D01*
X133437649Y-77250000D01*
X133350633Y-77234301D01*
X133342332Y-77231205D01*
X133342331Y-77231204D01*
X133252298Y-77197624D01*
X133207481Y-77180908D01*
X133147873Y-77174500D01*
X131352134Y-77174500D01*
X131352130Y-77174500D01*
X131352128Y-77174501D01*
X131339314Y-77175878D01*
X131292519Y-77180908D01*
X131292515Y-77180909D01*
X131149366Y-77234301D01*
X131062351Y-77250000D01*
X127749000Y-77250000D01*
X127653712Y-77231046D01*
X127572930Y-77177070D01*
X127518954Y-77096288D01*
X127500000Y-77001000D01*
X127500000Y-68000001D01*
X127500000Y-68000000D01*
X127499999Y-68000000D01*
X119999000Y-68000000D01*
X119903712Y-67981046D01*
X119822930Y-67927070D01*
X119768954Y-67846288D01*
X119750000Y-67751000D01*
X119750000Y-58749500D01*
X119768954Y-58654212D01*
X119822930Y-58573430D01*
X119903712Y-58519454D01*
X119999000Y-58500500D01*
X133751000Y-58500500D01*
X133846288Y-58519454D01*
G37*
G04 #@! TD.AperFunction*
G04 #@! TA.AperFunction,Conductor*
G36*
X108943039Y-75769685D02*
G01*
X108988794Y-75822489D01*
X109000000Y-75874000D01*
X109000000Y-80000000D01*
X114690473Y-83463766D01*
X114737504Y-83515438D01*
X114750000Y-83569687D01*
X114750000Y-90876000D01*
X114730315Y-90943039D01*
X114677511Y-90988794D01*
X114626000Y-91000000D01*
X106568727Y-91000000D01*
X106501688Y-90980315D01*
X106463575Y-90941720D01*
X105268848Y-89030156D01*
X105250000Y-88964436D01*
X105250000Y-77591583D01*
X105269685Y-77524544D01*
X105322489Y-77478789D01*
X105337522Y-77473070D01*
X108500000Y-76500000D01*
X108500000Y-76356410D01*
X108519685Y-76289371D01*
X108549685Y-76257146D01*
X108582549Y-76232545D01*
X108668799Y-76117330D01*
X108719094Y-75982482D01*
X108725503Y-75922872D01*
X108725503Y-75874000D01*
X108728053Y-75865314D01*
X108726765Y-75856353D01*
X108737743Y-75832312D01*
X108745188Y-75806961D01*
X108752028Y-75801033D01*
X108755790Y-75792797D01*
X108778024Y-75778507D01*
X108797992Y-75761206D01*
X108808506Y-75758918D01*
X108814568Y-75755023D01*
X108849503Y-75750000D01*
X108876000Y-75750000D01*
X108943039Y-75769685D01*
G37*
G04 #@! TD.AperFunction*
M02*
