G04 #@! TF.GenerationSoftware,KiCad,Pcbnew,9.0.4*
G04 #@! TF.CreationDate,2025-12-29T16:46:33-08:00*
G04 #@! TF.ProjectId,bikelight,62696b65-6c69-4676-9874-2e6b69636164,rev?*
G04 #@! TF.SameCoordinates,Original*
G04 #@! TF.FileFunction,Copper,L2,Bot*
G04 #@! TF.FilePolarity,Positive*
%FSLAX46Y46*%
G04 Gerber Fmt 4.6, Leading zero omitted, Abs format (unit mm)*
G04 Created by KiCad (PCBNEW 9.0.4) date 2025-12-29 16:46:33*
%MOMM*%
%LPD*%
G01*
G04 APERTURE LIST*
G04 #@! TA.AperFunction,ComponentPad*
%ADD10R,1.700000X1.700000*%
G04 #@! TD*
G04 #@! TA.AperFunction,ComponentPad*
%ADD11C,1.700000*%
G04 #@! TD*
G04 #@! TA.AperFunction,ViaPad*
%ADD12C,0.600000*%
G04 #@! TD*
G04 #@! TA.AperFunction,Conductor*
%ADD13C,1.000000*%
G04 #@! TD*
G04 #@! TA.AperFunction,Conductor*
%ADD14C,0.800000*%
G04 #@! TD*
G04 #@! TA.AperFunction,Conductor*
%ADD15C,2.000000*%
G04 #@! TD*
G04 APERTURE END LIST*
D10*
X92000000Y-75275000D03*
D11*
X92000000Y-72735000D03*
D10*
X132250000Y-78525000D03*
D11*
X132250000Y-75985000D03*
D10*
X102500000Y-62500000D03*
D12*
X102500000Y-71250000D03*
X107250000Y-66750000D03*
X123250000Y-74750000D03*
X100750000Y-70000000D03*
X104000000Y-68250000D03*
X122250000Y-73500000D03*
X105500000Y-66750000D03*
X116250000Y-73500000D03*
X99250000Y-71250000D03*
X104000000Y-69750000D03*
X98000000Y-88500000D03*
X123250000Y-71500000D03*
X99250000Y-68500000D03*
X117500000Y-75000000D03*
X123250000Y-72500000D03*
X124250000Y-75750000D03*
X99250000Y-66750000D03*
X124250000Y-73500000D03*
X124250000Y-71500000D03*
X102500000Y-66750000D03*
X119750000Y-73500000D03*
X125250000Y-71500000D03*
X118750000Y-72500000D03*
X104000000Y-71250000D03*
X117500000Y-72500000D03*
X118750000Y-77500000D03*
X100750000Y-68500000D03*
X125250000Y-74750000D03*
X128500000Y-92500000D03*
X118750000Y-75000000D03*
X116250000Y-71250000D03*
X119750000Y-71250000D03*
X118750000Y-73500000D03*
X105500000Y-68250000D03*
X117500000Y-76250000D03*
X118750000Y-71250000D03*
X117500000Y-77500000D03*
X100750000Y-71250000D03*
X117500000Y-73500000D03*
X116250000Y-75000000D03*
X115750000Y-70000000D03*
X99250000Y-70000000D03*
X122250000Y-71500000D03*
X102500000Y-69750000D03*
X123250000Y-73500000D03*
X125250000Y-75750000D03*
X123250000Y-75750000D03*
X116250000Y-72500000D03*
X116250000Y-76250000D03*
X107250000Y-70000000D03*
X100750000Y-66750000D03*
X102500000Y-68250000D03*
X122250000Y-72500000D03*
X116250000Y-77500000D03*
X125250000Y-72500000D03*
X119750000Y-72500000D03*
X124250000Y-74750000D03*
X118750000Y-76250000D03*
X107250000Y-68250000D03*
X104000000Y-66750000D03*
X117500000Y-71250000D03*
X124250000Y-72500000D03*
X105500000Y-70000000D03*
X125250000Y-73500000D03*
D13*
X100750000Y-68500000D02*
X100750000Y-66750000D01*
D14*
X123250000Y-74750000D02*
X123250000Y-75750000D01*
X124250000Y-73500000D02*
X125250000Y-73500000D01*
D13*
X96000000Y-72750000D02*
X98000000Y-74750000D01*
D14*
X125250000Y-74750000D02*
X125250000Y-75750000D01*
D13*
X100750000Y-71250000D02*
X100750000Y-70000000D01*
D14*
X122250000Y-73500000D02*
X123250000Y-73500000D01*
D13*
X92560000Y-72735000D02*
X92575000Y-72750000D01*
D14*
X124250000Y-72500000D02*
X123250000Y-72500000D01*
X123250000Y-74750000D02*
X123250000Y-73500000D01*
D15*
X107250000Y-70000000D02*
X115750000Y-70000000D01*
D14*
X119750000Y-72500000D02*
X118750000Y-72500000D01*
X117500000Y-72500000D02*
X116250000Y-72500000D01*
X118750000Y-76250000D02*
X117500000Y-76250000D01*
D13*
X104000000Y-68250000D02*
X104000000Y-66750000D01*
D14*
X117500000Y-73500000D02*
X117500000Y-75000000D01*
D13*
X104000000Y-71250000D02*
X102500000Y-71250000D01*
X103500000Y-95250000D02*
X125750000Y-95250000D01*
X92575000Y-72750000D02*
X95250000Y-72750000D01*
X102500000Y-69750000D02*
X104000000Y-69750000D01*
X98000000Y-88500000D02*
X98000000Y-89750000D01*
D14*
X116250000Y-71250000D02*
X117500000Y-71250000D01*
D15*
X105500000Y-70000000D02*
X107250000Y-70000000D01*
D13*
X98000000Y-89750000D02*
X103500000Y-95250000D01*
D14*
X118750000Y-73500000D02*
X118750000Y-75000000D01*
X125250000Y-73500000D02*
X125250000Y-72500000D01*
X116250000Y-76250000D02*
X116250000Y-77500000D01*
X125250000Y-75750000D02*
X124250000Y-75750000D01*
X116250000Y-75000000D02*
X116250000Y-73500000D01*
X122250000Y-72500000D02*
X122250000Y-71500000D01*
D13*
X105500000Y-66750000D02*
X107250000Y-66750000D01*
D14*
X125250000Y-74750000D02*
X124250000Y-74750000D01*
D13*
X98000000Y-74750000D02*
X98000000Y-88500000D01*
X95250000Y-72750000D02*
X96000000Y-72750000D01*
X125750000Y-95250000D02*
X128500000Y-92500000D01*
X102500000Y-66750000D02*
X102500000Y-68250000D01*
X99250000Y-66750000D02*
X99250000Y-68500000D01*
X92000000Y-72735000D02*
X92560000Y-72735000D01*
D14*
X123250000Y-71500000D02*
X124250000Y-71500000D01*
X125250000Y-71500000D02*
X125250000Y-72500000D01*
X118750000Y-71250000D02*
X119750000Y-71250000D01*
X117500000Y-77500000D02*
X118750000Y-77500000D01*
D13*
X99250000Y-70000000D02*
X99250000Y-71250000D01*
D14*
X118750000Y-73500000D02*
X119750000Y-73500000D01*
D13*
X107250000Y-68250000D02*
X105500000Y-68250000D01*
G04 #@! TA.AperFunction,Conductor*
G36*
X136345788Y-58519454D02*
G01*
X136426570Y-58573430D01*
X136480546Y-58654212D01*
X136499500Y-58749500D01*
X136499500Y-96250500D01*
X136480546Y-96345788D01*
X136426570Y-96426570D01*
X136345788Y-96480546D01*
X136250500Y-96499500D01*
X88749500Y-96499500D01*
X88654212Y-96480546D01*
X88573430Y-96426570D01*
X88519454Y-96345788D01*
X88500500Y-96250500D01*
X88500500Y-93750000D01*
X110000000Y-93750000D01*
X110000001Y-93750000D01*
X122749999Y-93750000D01*
X122750000Y-93750000D01*
X122750000Y-81000000D01*
X110000000Y-81000000D01*
X110000000Y-93750000D01*
X88500500Y-93750000D01*
X88500500Y-74377123D01*
X90649500Y-74377123D01*
X90649500Y-76172865D01*
X90649500Y-76172868D01*
X90649501Y-76172872D01*
X90651567Y-76192093D01*
X90655908Y-76232480D01*
X90655909Y-76232484D01*
X90706203Y-76367329D01*
X90706204Y-76367331D01*
X90792454Y-76482546D01*
X90907669Y-76568796D01*
X91042517Y-76619091D01*
X91102127Y-76625500D01*
X92897872Y-76625499D01*
X92957483Y-76619091D01*
X93092331Y-76568796D01*
X93207546Y-76482546D01*
X93293796Y-76367331D01*
X93344091Y-76232483D01*
X93350500Y-76172873D01*
X93350500Y-75878703D01*
X130899500Y-75878703D01*
X130899500Y-76091296D01*
X130932753Y-76301240D01*
X130991662Y-76482544D01*
X130998443Y-76503412D01*
X131060650Y-76625500D01*
X131094950Y-76692817D01*
X131225647Y-76872707D01*
X131223346Y-76874378D01*
X131261792Y-76943055D01*
X131273195Y-77039538D01*
X131246808Y-77133041D01*
X131186647Y-77209329D01*
X131171405Y-77219834D01*
X131171927Y-77220531D01*
X131157670Y-77231203D01*
X131157669Y-77231204D01*
X131083319Y-77286861D01*
X131042455Y-77317453D01*
X131042453Y-77317455D01*
X130956204Y-77432669D01*
X130905908Y-77567518D01*
X130899500Y-77627123D01*
X130899500Y-79422865D01*
X130899500Y-79422868D01*
X130899501Y-79422872D01*
X130901567Y-79442093D01*
X130905908Y-79482480D01*
X130905909Y-79482483D01*
X130956204Y-79617331D01*
X131042454Y-79732546D01*
X131157669Y-79818796D01*
X131292517Y-79869091D01*
X131352127Y-79875500D01*
X133147872Y-79875499D01*
X133207483Y-79869091D01*
X133342331Y-79818796D01*
X133457546Y-79732546D01*
X133543796Y-79617331D01*
X133594091Y-79482483D01*
X133600500Y-79422873D01*
X133600499Y-77627128D01*
X133594091Y-77567517D01*
X133543796Y-77432669D01*
X133457546Y-77317454D01*
X133342331Y-77231204D01*
X133342329Y-77231203D01*
X133328073Y-77220531D01*
X133330426Y-77217387D01*
X133281106Y-77176144D01*
X133236099Y-77090043D01*
X133227467Y-76993272D01*
X133256526Y-76900564D01*
X133275274Y-76873376D01*
X133274353Y-76872707D01*
X133280104Y-76864792D01*
X133405051Y-76692816D01*
X133501557Y-76503412D01*
X133567246Y-76301243D01*
X133584789Y-76190476D01*
X133600499Y-76091296D01*
X133600500Y-76091284D01*
X133600500Y-75878715D01*
X133600499Y-75878703D01*
X133567246Y-75668759D01*
X133567246Y-75668757D01*
X133501557Y-75466588D01*
X133405051Y-75277184D01*
X133280104Y-75105208D01*
X133129792Y-74954896D01*
X132957816Y-74829949D01*
X132768412Y-74733443D01*
X132768409Y-74733442D01*
X132768407Y-74733441D01*
X132566240Y-74667753D01*
X132356296Y-74634500D01*
X132356287Y-74634500D01*
X132143713Y-74634500D01*
X132143703Y-74634500D01*
X131933759Y-74667753D01*
X131731592Y-74733441D01*
X131542182Y-74829950D01*
X131370206Y-74954897D01*
X131219897Y-75105206D01*
X131094950Y-75277182D01*
X130998441Y-75466592D01*
X130932753Y-75668759D01*
X130899500Y-75878703D01*
X93350500Y-75878703D01*
X93350499Y-74377128D01*
X93344091Y-74317517D01*
X93293796Y-74182669D01*
X93207546Y-74067454D01*
X93092331Y-73981204D01*
X93092330Y-73981203D01*
X93092328Y-73981202D01*
X93086886Y-73979172D01*
X93086872Y-73979168D01*
X92957483Y-73930909D01*
X92897873Y-73924500D01*
X92897573Y-73924500D01*
X92876524Y-73918421D01*
X92855504Y-73907545D01*
X92823151Y-73897421D01*
X92794506Y-73875982D01*
X92790236Y-73873773D01*
X92787980Y-73871098D01*
X92766373Y-73854927D01*
X92129408Y-73217962D01*
X92192993Y-73200925D01*
X92307007Y-73135099D01*
X92400099Y-73042007D01*
X92465925Y-72927993D01*
X92482962Y-72864408D01*
X93076324Y-73457770D01*
X93131904Y-73473821D01*
X93154624Y-73442551D01*
X93251091Y-73253224D01*
X93251095Y-73253215D01*
X93316758Y-73051123D01*
X93349999Y-72841256D01*
X93350000Y-72841244D01*
X93350000Y-72628755D01*
X93349999Y-72628743D01*
X93316758Y-72418876D01*
X93251095Y-72216784D01*
X93251091Y-72216774D01*
X93154624Y-72027448D01*
X93115270Y-71973282D01*
X93115269Y-71973282D01*
X92482962Y-72605589D01*
X92465925Y-72542007D01*
X92400099Y-72427993D01*
X92307007Y-72334901D01*
X92192993Y-72269075D01*
X92129408Y-72252037D01*
X92761717Y-71619729D01*
X92707551Y-71580375D01*
X92707545Y-71580371D01*
X92518225Y-71483908D01*
X92518215Y-71483904D01*
X92316123Y-71418241D01*
X92106256Y-71385000D01*
X91893743Y-71385000D01*
X91683876Y-71418241D01*
X91481784Y-71483904D01*
X91481774Y-71483908D01*
X91292454Y-71580372D01*
X91292441Y-71580380D01*
X91238281Y-71619728D01*
X91870591Y-72252037D01*
X91807007Y-72269075D01*
X91692993Y-72334901D01*
X91599901Y-72427993D01*
X91534075Y-72542007D01*
X91517037Y-72605590D01*
X90884728Y-71973281D01*
X90845380Y-72027441D01*
X90845372Y-72027454D01*
X90748908Y-72216774D01*
X90748904Y-72216784D01*
X90683241Y-72418876D01*
X90650000Y-72628743D01*
X90650000Y-72841256D01*
X90683241Y-73051123D01*
X90748904Y-73253215D01*
X90748908Y-73253225D01*
X90845371Y-73442545D01*
X90845375Y-73442551D01*
X90884728Y-73496716D01*
X91517037Y-72864407D01*
X91534075Y-72927993D01*
X91599901Y-73042007D01*
X91692993Y-73135099D01*
X91807007Y-73200925D01*
X91870589Y-73217962D01*
X91233623Y-73854928D01*
X91204101Y-73874653D01*
X91176854Y-73897418D01*
X91164022Y-73901433D01*
X91152842Y-73908904D01*
X91084133Y-73926435D01*
X91080966Y-73926775D01*
X91006011Y-73920056D01*
X90996668Y-73931909D01*
X90921974Y-73975868D01*
X90907671Y-73981202D01*
X90792455Y-74067453D01*
X90792453Y-74067455D01*
X90706204Y-74182669D01*
X90655908Y-74317518D01*
X90649500Y-74377123D01*
X88500500Y-74377123D01*
X88500500Y-61602123D01*
X101149500Y-61602123D01*
X101149500Y-63397865D01*
X101149500Y-63397868D01*
X101149501Y-63397872D01*
X101151567Y-63417093D01*
X101155908Y-63457480D01*
X101155909Y-63457483D01*
X101206204Y-63592331D01*
X101292454Y-63707546D01*
X101407669Y-63793796D01*
X101542517Y-63844091D01*
X101602127Y-63850500D01*
X103397872Y-63850499D01*
X103457483Y-63844091D01*
X103592331Y-63793796D01*
X103707546Y-63707546D01*
X103793796Y-63592331D01*
X103844091Y-63457483D01*
X103850500Y-63397873D01*
X103850499Y-61602128D01*
X103844091Y-61542517D01*
X103793796Y-61407669D01*
X103707546Y-61292454D01*
X103592331Y-61206204D01*
X103512117Y-61176286D01*
X103457481Y-61155908D01*
X103397873Y-61149500D01*
X101602134Y-61149500D01*
X101602130Y-61149500D01*
X101602128Y-61149501D01*
X101589314Y-61150878D01*
X101542519Y-61155908D01*
X101542515Y-61155909D01*
X101407670Y-61206203D01*
X101292455Y-61292453D01*
X101292453Y-61292455D01*
X101206204Y-61407669D01*
X101155908Y-61542518D01*
X101149500Y-61602123D01*
X88500500Y-61602123D01*
X88500500Y-58749500D01*
X88519454Y-58654212D01*
X88573430Y-58573430D01*
X88654212Y-58519454D01*
X88749500Y-58500500D01*
X136250500Y-58500500D01*
X136345788Y-58519454D01*
G37*
G04 #@! TD.AperFunction*
M02*
