%TF.GenerationSoftware,KiCad,Pcbnew,9.0.4*%
%TF.CreationDate,2025-12-29T16:47:07-08:00*%
%TF.ProjectId,bikelight,62696b65-6c69-4676-9874-2e6b69636164,rev?*%
%TF.SameCoordinates,Original*%
%TF.FileFunction,Drillmap*%
%TF.FilePolarity,Positive*%
%FSLAX45Y45*%
G04 Gerber Fmt 4.5, Leading zero omitted, Abs format (unit mm)*
G04 Created by KiCad (PCBNEW 9.0.4) date 2025-12-29 16:47:07*
%MOMM*%
%LPD*%
G01*
G04 APERTURE LIST*
%ADD10C,0.050000*%
%ADD11C,0.200000*%
G04 APERTURE END LIST*
D10*
X8750000Y-5750000D02*
X13750000Y-5750000D01*
X13750000Y-9750000D01*
X8750000Y-9750000D01*
X8750000Y-5750000D01*
D11*
X9008277Y-10063984D02*
X9008277Y-9863984D01*
X9008277Y-9863984D02*
X9055896Y-9863984D01*
X9055896Y-9863984D02*
X9084467Y-9873508D01*
X9084467Y-9873508D02*
X9103515Y-9892555D01*
X9103515Y-9892555D02*
X9113039Y-9911603D01*
X9113039Y-9911603D02*
X9122563Y-9949698D01*
X9122563Y-9949698D02*
X9122563Y-9978270D01*
X9122563Y-9978270D02*
X9113039Y-10016365D01*
X9113039Y-10016365D02*
X9103515Y-10035412D01*
X9103515Y-10035412D02*
X9084467Y-10054460D01*
X9084467Y-10054460D02*
X9055896Y-10063984D01*
X9055896Y-10063984D02*
X9008277Y-10063984D01*
X9208277Y-10063984D02*
X9208277Y-9930650D01*
X9208277Y-9968746D02*
X9217801Y-9949698D01*
X9217801Y-9949698D02*
X9227324Y-9940174D01*
X9227324Y-9940174D02*
X9246372Y-9930650D01*
X9246372Y-9930650D02*
X9265420Y-9930650D01*
X9332086Y-10063984D02*
X9332086Y-9930650D01*
X9332086Y-9863984D02*
X9322563Y-9873508D01*
X9322563Y-9873508D02*
X9332086Y-9883031D01*
X9332086Y-9883031D02*
X9341610Y-9873508D01*
X9341610Y-9873508D02*
X9332086Y-9863984D01*
X9332086Y-9863984D02*
X9332086Y-9883031D01*
X9455896Y-10063984D02*
X9436848Y-10054460D01*
X9436848Y-10054460D02*
X9427324Y-10035412D01*
X9427324Y-10035412D02*
X9427324Y-9863984D01*
X9560658Y-10063984D02*
X9541610Y-10054460D01*
X9541610Y-10054460D02*
X9532086Y-10035412D01*
X9532086Y-10035412D02*
X9532086Y-9863984D01*
X9789229Y-10063984D02*
X9789229Y-9863984D01*
X9789229Y-9863984D02*
X9855896Y-10006841D01*
X9855896Y-10006841D02*
X9922563Y-9863984D01*
X9922563Y-9863984D02*
X9922563Y-10063984D01*
X10103515Y-10063984D02*
X10103515Y-9959222D01*
X10103515Y-9959222D02*
X10093991Y-9940174D01*
X10093991Y-9940174D02*
X10074944Y-9930650D01*
X10074944Y-9930650D02*
X10036848Y-9930650D01*
X10036848Y-9930650D02*
X10017801Y-9940174D01*
X10103515Y-10054460D02*
X10084467Y-10063984D01*
X10084467Y-10063984D02*
X10036848Y-10063984D01*
X10036848Y-10063984D02*
X10017801Y-10054460D01*
X10017801Y-10054460D02*
X10008277Y-10035412D01*
X10008277Y-10035412D02*
X10008277Y-10016365D01*
X10008277Y-10016365D02*
X10017801Y-9997317D01*
X10017801Y-9997317D02*
X10036848Y-9987793D01*
X10036848Y-9987793D02*
X10084467Y-9987793D01*
X10084467Y-9987793D02*
X10103515Y-9978270D01*
X10198753Y-9930650D02*
X10198753Y-10130650D01*
X10198753Y-9940174D02*
X10217801Y-9930650D01*
X10217801Y-9930650D02*
X10255896Y-9930650D01*
X10255896Y-9930650D02*
X10274944Y-9940174D01*
X10274944Y-9940174D02*
X10284467Y-9949698D01*
X10284467Y-9949698D02*
X10293991Y-9968746D01*
X10293991Y-9968746D02*
X10293991Y-10025889D01*
X10293991Y-10025889D02*
X10284467Y-10044936D01*
X10284467Y-10044936D02*
X10274944Y-10054460D01*
X10274944Y-10054460D02*
X10255896Y-10063984D01*
X10255896Y-10063984D02*
X10217801Y-10063984D01*
X10217801Y-10063984D02*
X10198753Y-10054460D01*
X10379705Y-10044936D02*
X10389229Y-10054460D01*
X10389229Y-10054460D02*
X10379705Y-10063984D01*
X10379705Y-10063984D02*
X10370182Y-10054460D01*
X10370182Y-10054460D02*
X10379705Y-10044936D01*
X10379705Y-10044936D02*
X10379705Y-10063984D01*
X10379705Y-9940174D02*
X10389229Y-9949698D01*
X10389229Y-9949698D02*
X10379705Y-9959222D01*
X10379705Y-9959222D02*
X10370182Y-9949698D01*
X10370182Y-9949698D02*
X10379705Y-9940174D01*
X10379705Y-9940174D02*
X10379705Y-9959222D01*
M02*
